<svg width="84" height="123" viewBox="0 0 84 123" fill="none" xmlns="http://www.w3.org/2000/svg">
<g clip-path="url(#clip0_35_2)">
<path fill-rule="evenodd" clip-rule="evenodd" d="M66.7 71.27C67.373 69.0421 68.5346 66.9923 70.1 65.27C70.8344 64.5016 71.8018 63.9969 72.8522 63.8342C73.9027 63.6715 74.9775 63.8598 75.91 64.37C76.085 64.4496 76.2213 64.5954 76.2888 64.7754C76.3563 64.9555 76.3495 65.155 76.27 65.33C76.1904 65.505 76.0446 65.6413 75.8645 65.7088C75.6845 65.7763 75.485 65.7696 75.31 65.69C74.6355 65.3188 73.8575 65.1804 73.0964 65.2961C72.3353 65.4118 71.6336 65.7752 71.1 66.33C69.7563 67.8386 68.7536 69.619 68.16 71.55C67.6683 71.4939 67.1807 71.4071 66.7 71.29V71.27ZM27.43 9.27C27.43 8.43 28.43 7.75 29.58 7.75C30.73 7.75 31.74 8.43 31.74 9.27V19.42H27.43V9.27ZM44.52 19.42V9.27C44.52 8.43 43.52 7.75 42.37 7.75C41.22 7.75 40.22 8.43 40.22 9.27V19.42H44.52ZM57.3 19.42V9.27C57.3 8.43 56.3 7.75 55.15 7.75C54 7.75 53 8.43 53 9.27V19.42H57.3ZM70.08 19.42V9.27C70.08 8.43 69.08 7.75 67.93 7.75C66.78 7.75 65.78 8.43 65.78 9.27V19.42H70.08ZM14.65 9.27C14.65 8.43 15.65 7.75 16.8 7.75C17.95 7.75 19 8.43 19 9.27V19.42H14.7V9.27H14.65ZM6.38996 49.7C6.35736 48.0612 6.41746 46.422 6.56996 44.79C7.50996 36.59 11.9 30.71 16.88 24C17.96 22.54 19.09 21 20.24 19.4H63.47C64.47 20.82 65.6 22.29 66.69 23.75C71.69 30.34 76.37 36.63 77.25 44.83C77.25 45.24 77.33 47.67 77.35 49.95V52.21C70.84 47.86 62.56 47.74 53.68 49.21C53.7002 49.3861 53.7002 49.5639 53.68 49.74C53.681 50.4346 53.4229 51.1046 52.9562 51.619C52.4894 52.1334 51.8476 52.4552 51.1561 52.5215C50.4647 52.5877 49.7734 52.3937 49.2175 51.9773C48.6615 51.5609 48.2809 50.9521 48.15 50.27C42.54 51.49 36.8 53.11 31.21 54.48C31.6893 54.8878 32.0582 55.4096 32.2829 55.9975C32.5075 56.5853 32.5806 57.2202 32.4954 57.8437C32.4103 58.4672 32.1696 59.0592 31.7955 59.5653C31.4214 60.0713 30.926 60.4751 30.3549 60.7394C29.7838 61.0037 29.1554 61.12 28.5275 61.0776C27.8997 61.0353 27.2925 60.8356 26.7621 60.497C26.2317 60.1584 25.795 59.6917 25.4923 59.14C25.1896 58.5883 25.0306 57.9693 25.03 57.34C25.0317 56.8168 25.1406 56.2995 25.35 55.82C18.5 57.26 12 58 6.41996 56.59C6.41996 54.29 6.41996 52 6.41996 49.7H6.38996ZM51.27 60.08C52.2589 60.08 53.2256 60.3732 54.0478 60.9227C54.8701 61.4721 55.5109 62.253 55.8894 63.1666C56.2678 64.0802 56.3668 65.0855 56.1739 66.0555C55.981 67.0254 55.5048 67.9163 54.8055 68.6155C54.1062 69.3148 53.2153 69.791 52.2454 69.9839C51.2755 70.1769 50.2702 70.0778 49.3565 69.6994C48.4429 69.321 47.662 68.6801 47.1126 67.8578C46.5632 67.0356 46.27 66.0689 46.27 65.08C46.27 63.7539 46.7967 62.4821 47.7344 61.5445C48.6721 60.6068 49.9439 60.08 51.27 60.08ZM42.39 84.15C43.2804 84.15 44.1508 84.4142 44.8911 84.9091C45.6313 85.404 46.2081 86.1074 46.5484 86.9302C46.8887 87.7531 46.9772 88.6584 46.8027 89.5316C46.6283 90.4048 46.1987 91.2066 45.5684 91.8355C44.938 92.4645 44.1353 92.8922 43.2617 93.0648C42.3881 93.2373 41.483 93.1467 40.6609 92.8046C39.8389 92.4625 39.1367 91.8841 38.6435 91.1428C38.1502 90.4014 37.888 89.5304 37.89 88.64C37.89 88.0495 38.0064 87.4648 38.2327 86.9194C38.459 86.374 38.7906 85.8786 39.2086 85.4615C39.6266 85.0445 40.1227 84.714 40.6686 84.4889C41.2145 84.2639 41.7995 84.1487 42.39 84.15ZM30.45 75C31.0655 74.998 31.6677 75.1787 32.1805 75.5193C32.6932 75.8598 33.0934 76.3448 33.3303 76.9129C33.5673 77.481 33.6303 78.1066 33.5114 78.7106C33.3925 79.3145 33.0971 79.8696 32.6626 80.3055C32.2281 80.7415 31.6739 81.0387 31.0704 81.1595C30.4668 81.2803 29.841 81.2193 29.2721 80.9842C28.7033 80.7491 28.217 80.3505 27.8748 79.8389C27.5326 79.3272 27.35 78.7255 27.35 78.11C27.35 77.2869 27.6762 76.4974 28.2573 75.9144C28.8384 75.3315 29.6269 75.0026 30.45 75ZM16.06 77C15.8693 75.6791 15.384 74.418 14.64 73.31C14.2881 72.8122 13.7818 72.4444 13.1996 72.2636C12.6175 72.0829 11.9919 72.0991 11.42 72.31C11.3157 72.3445 11.2286 72.4176 11.1766 72.5143C11.1245 72.611 11.1114 72.724 11.14 72.83C11.1723 72.9357 11.2451 73.0244 11.3424 73.0768C11.4398 73.1293 11.5539 73.1412 11.66 73.11C12.071 72.9577 12.5207 72.9447 12.9399 73.073C13.3591 73.2013 13.7245 73.4638 13.98 73.82C14.6174 74.7774 15.0373 75.8629 15.21 77C15.4929 77.0198 15.777 77.0198 16.06 77ZM19.78 82.43C19.7746 82.4564 19.7746 82.4836 19.78 82.51C20.0745 83.5945 20.206 84.7168 20.17 85.84C20.23 87.15 20.3 88.69 20.5 90.3C21.21 95.9 23.5 102.08 32.36 101.41C31.778 102.101 31.0628 102.668 30.2571 103.077C29.4513 103.486 28.5714 103.728 27.67 103.79C25.5478 103.836 23.4598 103.251 21.67 102.11C19.5091 100.798 17.6048 99.1035 16.05 97.11C12.85 93 10.83 87.74 11.75 83C12.6125 82.9406 13.4187 82.5501 14 81.91C14.2156 82.4562 14.5584 82.943 15 83.33C15.6675 83.8658 16.4854 84.1804 17.34 84.23C17.4253 84.2377 17.5109 84.2192 17.5854 84.1768C17.6599 84.1345 17.7196 84.0704 17.7566 83.9931C17.7936 83.9158 17.8061 83.8291 17.7924 83.7446C17.7787 83.66 17.7395 83.5816 17.68 83.52C17.3879 83.2606 17.1967 82.9065 17.14 82.52C17.1121 82.2131 17.1602 81.904 17.28 81.62C18.0511 82.07 18.9111 82.3464 19.8 82.43H19.78ZM19.87 81.6C18.9569 81.5092 18.0807 81.1931 17.32 80.68H17.27C17.2214 80.6537 17.1681 80.6372 17.1131 80.6314C17.0582 80.6257 17.0026 80.6309 16.9497 80.6467C16.8967 80.6625 16.8474 80.6886 16.8046 80.7235C16.7617 80.7584 16.7262 80.8014 16.7 80.85C16.3775 81.392 16.234 82.0218 16.29 82.65C16.3117 82.8571 16.3657 83.0595 16.45 83.25C16.1122 83.1434 15.7993 82.97 15.53 82.74C15.0327 82.2814 14.7049 81.6683 14.6 81C14.5799 80.9204 14.5384 80.8477 14.48 80.79C14.4014 80.7124 14.2954 80.669 14.185 80.669C14.0745 80.669 13.9686 80.7124 13.89 80.79C12.99 81.79 12.26 82.14 11.68 82.08C11.4709 82.0268 11.2746 81.9321 11.1028 81.8015C10.931 81.671 10.7872 81.5072 10.68 81.32C10.8863 81.2919 11.086 81.2275 11.27 81.13C11.819 80.767 12.283 80.2894 12.63 79.73C13.29 78.85 14.03 77.84 15.41 77.73C17.84 77.61 18.08 78.09 18.61 79.15C18.77 79.46 18.94 79.82 19.2 80.24C19.5149 80.769 19.9723 81.1987 20.52 81.48C20.3205 81.5001 20.1195 81.5001 19.92 81.48L19.87 81.6ZM58.87 79.76L58.78 79.9C58.23 80.57 57.78 82.74 57.27 85.55C56.84 87.8 56.33 90.46 55.57 93.19C52.93 102.7 47.4 112.83 32.24 109.43C33.0707 110.775 34.1652 111.939 35.4577 112.849C36.7501 113.76 38.2136 114.4 39.76 114.73C43.428 115.347 47.1966 114.863 50.59 113.34C54.6644 111.621 58.3918 109.174 61.59 106.12C68.21 99.9 73.05 91.24 72.65 82.76C71.1703 82.4395 69.8665 81.5715 69 80.33C68.5178 81.2147 67.8323 81.9722 67 82.54C65.715 83.3176 64.2165 83.6678 62.72 83.54C62.5272 83.5271 62.3471 83.4394 62.2182 83.2955C62.0892 83.1516 62.0217 82.963 62.03 82.77C62.0362 82.6629 62.0652 82.5584 62.1153 82.4635C62.1653 82.3687 62.2351 82.2856 62.32 82.22C62.8911 81.8329 63.3114 81.2608 63.51 80.6C63.64 80.0746 63.64 79.5254 63.51 79C62.0615 79.5887 60.5013 79.8516 58.94 79.77L58.87 79.76ZM55.5 100.33C55.5469 100.15 55.6607 99.9953 55.8179 99.8965C55.9752 99.7977 56.1642 99.7626 56.3465 99.7983C56.5287 99.834 56.6905 99.9378 56.799 100.089C56.9074 100.239 56.9542 100.426 56.93 100.61C56.6 102.29 54.93 104.72 52.99 106.8C51.05 108.88 48.87 110.5 47.15 110.94C47.0574 110.964 46.9609 110.969 46.8663 110.955C46.7717 110.941 46.6807 110.909 46.5988 110.86C46.5169 110.81 46.4456 110.745 46.3891 110.668C46.3327 110.591 46.2922 110.503 46.27 110.41C46.2212 110.223 46.2486 110.024 46.346 109.858C46.4435 109.691 46.6031 109.569 46.79 109.52C48.24 109.16 50.21 107.61 51.93 105.8C53.65 103.99 55.22 101.73 55.5 100.33ZM58.91 78.33C60.5222 78.3886 62.1237 78.0449 63.57 77.33H63.67C63.8517 77.2657 64.0514 77.2759 64.2256 77.3583C64.3999 77.4408 64.5344 77.5887 64.6 77.77C65.0357 78.7889 65.1373 79.9198 64.89 81C64.7996 81.3521 64.6581 81.689 64.47 82C65.0809 81.8944 65.6652 81.6701 66.19 81.34C67.1153 80.6897 67.8145 79.7668 68.19 78.7C68.237 78.5667 68.3244 78.4513 68.44 78.37C68.5969 78.2656 68.7878 78.2251 68.9737 78.2567C69.1595 78.2883 69.3263 78.3896 69.44 78.54C70.76 80.41 71.92 81.29 72.94 81.33C73.3291 81.3085 73.7091 81.2036 74.0541 81.0224C74.3992 80.8413 74.7013 80.5881 74.94 80.28C74.578 80.1883 74.238 80.0251 73.94 79.8C73.1014 79.0153 72.44 78.0607 72 77C71.09 75.31 70 73.38 67.69 72.92C63.5 72.1 62.96 72.92 61.78 74.58C61.43 75.08 61.04 75.65 60.49 76.32C59.8125 77.1577 58.9107 77.7855 57.89 78.13C58.2185 78.208 58.553 78.2582 58.89 78.28L58.91 78.33ZM9.68996 0H74.86C76.6539 0.00527619 78.3728 0.720236 79.6412 1.98872C80.9097 3.25719 81.6247 4.97611 81.63 6.77V12.42C81.6247 14.2139 80.9097 15.9328 79.6412 17.2013C78.3728 18.4698 76.6539 19.1847 74.86 19.19H70.49C71.12 20.05 71.75 20.88 72.37 21.71C78.29 29.59 83.91 37.08 83.77 48C83.77 68.92 83.77 89.8433 83.77 110.77C83.96 114.77 83.17 117.94 81.05 120.1C78.93 122.26 75.62 123.24 70.8 122.73H11.07C7.41996 122.84 4.74996 121.93 2.92996 120.15C1.10996 118.37 0.229958 115.88 0.0899582 112.76C0.0847473 112.687 0.0847473 112.613 0.0899582 112.54V50.32C-0.680042 38.29 4.35996 31.1 11.18 22C11.86 21.09 12.55 20.17 13.18 19.24H9.68996C7.89606 19.2347 6.17715 18.5198 4.90867 17.2513C3.64019 15.9828 2.92523 14.2639 2.91996 12.47V6.77C2.92523 4.97611 3.64019 3.25719 4.90867 1.98872C6.17715 0.720236 7.89606 0.00527619 9.68996 0Z" fill="#81AED8"/>
<path d="M7 47.396C7 47.396 7.5145 66.287 31.1811 47.396C54.8478 28.505 78 47.396 78 47.396V116H7V47.396Z" fill="url(#paint0_linear_35_2)"/>
</g>
<defs>
<linearGradient id="paint0_linear_35_2" x1="42.5" y1="47.396" x2="42.5" y2="116" gradientUnits="userSpaceOnUse">
<stop stop-color="#EEEFB5"/>
<stop offset="0.71875" stop-color="white"/>
</linearGradient>
<clipPath id="clip0_35_2">
<rect width="83.81" height="122.88" fill="white"/>
</clipPath>
</defs>
</svg>
