<svg width="82" height="82" viewBox="0 0 82 82" fill="none" xmlns="http://www.w3.org/2000/svg">
<path d="M76.5547 3.80212C74.7449 3.84697 72.791 4.03755 70.9653 4.3899C68.4028 4.88318 66.0965 5.724 64.8953 6.61287C64.7832 6.96681 64.7512 7.45209 64.7672 7.78041C64.7672 8.11673 64.8153 8.48189 64.8793 8.85025C67.0094 7.2631 69.6199 6.35341 72.2625 5.49337C69.9723 7.10615 68.0024 8.8006 66.1445 10.5367C67.4418 11.1085 68.9793 11.1165 69.9723 10.4134H69.9883C72.1344 8.86947 75.0012 6.28775 76.5547 3.80693V3.80212ZM28.8442 4.37709C28.4117 4.37709 27.9473 4.42513 27.4668 4.53244C27.1465 6.10037 27.3387 7.52736 27.9313 8.66287C26.4899 8.09591 24.7602 8.19041 22.9985 9.66544C24.0715 13.3218 27.3067 14.9506 30.6379 13.2994C30.734 14.8113 30.7821 16.336 30.7821 17.8574C29.741 16.7203 28.0274 15.6873 26.2496 15.7354C25.0004 15.7834 23.7031 16.352 22.566 17.7934C24.3598 21.1567 27.8512 22.0856 30.766 19.8113C30.734 21.461 30.6539 23.1106 30.5258 24.7762C29.5488 23.4309 27.8031 22.1496 25.8653 22.1656C25.0004 22.1817 24.1035 22.4539 23.2067 23.0945C25.7692 23.8153 28.1074 24.8402 30.2055 26.2176C30.9903 26.7141 31.3906 27.4828 31.6149 28.2356C31.8231 28.9883 31.8711 29.7731 31.8551 30.5738C31.791 32.2074 31.4067 33.9211 30.8301 35.3785L30.6219 35.859L30.1574 36.0992C29.8371 36.2754 29.4688 36.4516 29.1164 36.6278C28.7801 38.6778 28.4117 40.7438 28.0113 42.8258C25.641 39.943 23.2547 38.886 20.9004 38.8699C14.8801 38.8059 8.99119 45.4684 3.49463 45.5805C10.9371 46.109 22.518 38.5176 26.5539 47.4383C29.5488 49.6645 32.6238 51.4742 35.7629 52.8516C36.0192 51.3461 36.4356 49.7606 37.0121 48.3512C37.3805 47.4543 37.7969 46.6215 38.3254 45.9168C38.8539 45.2121 39.4946 44.5715 40.4715 44.3313C40.7438 44.2512 41.032 44.1871 41.3043 44.1231C40.4395 42.4414 40.5516 40.1832 41.5766 38.2934C42.6176 36.3555 44.5074 35.0102 46.4453 34.866C48.4313 31.8391 50.5133 28.8922 52.7074 25.9934C54.4051 29.5969 58.1528 30.2535 61.2438 27.7391C60.459 24.8402 58.361 23.9274 56.359 23.9754C55.4621 23.9914 54.5813 24.2156 53.8285 24.536C56.9836 20.452 60.3629 16.5281 63.9824 12.7228C62.6692 12.1431 62.5731 11.7058 62.2367 10.3829C58.5531 14.2251 55.1098 18.2258 51.8906 22.3418C51.8106 24.8883 50.3692 27.1785 47.9348 27.659H47.9028C46.3492 29.8371 44.8438 32.0313 43.4024 34.2735C43.7707 31.8871 44.1391 29.4367 44.5875 27.0024C43.4664 26.2977 42.5696 25.1125 42.0731 23.7352C40.5516 28.6199 39.4625 33.809 38.0531 38.2934C37.861 38.2613 37.6528 38.2453 37.4606 38.2453C34.9301 38.2293 32.7039 40.4235 32.1274 42.0731C34.0653 43.7387 36.1953 44.059 37.941 43.2902C37.2844 44.4594 36.6117 45.6446 35.9711 46.8297C35.3946 46.5735 34.802 46.4453 34.2414 46.4453C32.4156 46.4293 30.75 47.5824 29.741 48.8317C30.8461 43.5785 31.8391 38.3254 32.5598 33.0883C35.5067 34.5778 38.5656 33.2645 39.927 29.9492C38.7738 28.7481 37.5567 28.2676 36.4035 28.2516C35.1383 28.2356 33.9371 28.7961 32.9922 29.5488C33.2004 27.7391 33.3606 25.9293 33.4727 24.1195C36.4836 27.0824 40.3754 26.2817 42.2973 22.6621C41.1602 21.2207 39.8629 20.6602 38.6137 20.6121C36.4356 20.5481 34.3856 22.1016 33.5047 23.511C33.6008 21.7973 33.6649 20.0996 33.6649 18.402C36.9481 19.9395 40.1031 18.3059 41.1602 14.6863C40.007 13.7206 38.8699 13.3474 37.8289 13.3635C36.0992 13.3891 34.5938 14.4765 33.6328 15.7194C33.6008 14.5903 33.5367 13.4611 33.4567 12.3352C37.2043 13.5701 40.2313 11.3327 40.5836 7.40084C37.4125 5.65033 34.9781 7.28232 33.7129 9.29709C33.4246 7.04048 31.9512 4.38029 28.8442 4.37709ZM57.352 6.60646C51.4582 7.53857 47.7906 11.1357 45.2281 15.8955L45.6125 15.7994C46.4613 15.6393 47.2781 15.7194 48.0149 15.9916C49.9688 12.1783 52.8516 8.88228 57.352 6.60646ZM78.5086 16.8164C70.9172 27.691 60.7633 32.3195 50.7856 37.3485C51.6344 39.0301 51.5223 41.2403 50.5133 43.1141V43.1301C61.0516 36.5957 71.7821 30.3977 78.5086 16.8164ZM64.1426 17.5211C61.6121 17.4891 59.386 19.7153 58.8094 21.3488C62.1567 24.2317 66.0645 23.0945 67.666 19.2188C66.5129 18.0176 65.2957 17.5371 64.1426 17.5211ZM46.3653 18.6102C46.3012 18.6262 46.2371 18.6262 46.1731 18.6422C45.1641 18.8344 44.2512 20.2598 44.6196 22.1496C44.9879 24.0395 46.3813 25.0324 47.3742 24.8242C48.3832 24.632 49.2961 23.2067 48.9278 21.3168C48.5754 19.5391 47.3582 18.5621 46.3653 18.6102ZM13.6101 24.7281C13.3715 24.7281 13.1168 24.7442 12.875 24.7442C14.3788 28.7961 15.9964 32.2555 19.411 34.3375H19.427C21.7012 35.7789 24.4238 35.3785 26.7781 34.4817L19.9875 28.8602L28.4598 33.3445C28.7 31.9192 29.5328 30.0133 28.668 28.652H28.652V28.636C24.7281 26.0895 19.7953 24.7762 13.6101 24.7281ZM46.7496 37.7488C45.8688 37.7809 44.7957 38.3895 44.107 39.6547C43.1942 41.3524 43.6426 43.002 44.5395 43.4824C45.9168 44.075 47.4543 42.6817 47.9668 41.7528C48.8797 40.0551 48.4313 38.4215 47.5344 37.925C47.3102 37.7969 47.0379 37.7488 46.7496 37.7488ZM46.2531 46.4453C46.0129 46.4453 45.7567 46.4453 45.5164 46.4613C44.043 46.5254 42.6016 46.7496 41.1922 47.118H41.1762C41.1922 47.118 40.936 47.2301 40.6317 47.6465C40.3274 48.0629 39.975 48.6875 39.6867 49.4403C39.2543 50.4813 38.918 51.7305 38.6938 52.8996L48.9438 51.2821L40.6317 54.5813C41.4965 55.8625 41.7367 56.391 41.9449 57.336C43.2742 58.1848 44.6836 58.5692 46.4613 58.1367C50.8817 57.0957 54.3571 53.4922 57.9926 49.2481C53.8285 47.3422 49.9528 46.4133 46.2531 46.4453ZM24.2797 49.3121L22.8383 52.9797C28.0754 55.286 32.5438 57.9606 36.8199 60.6512L38.8219 57.0317C33.7129 55.4621 28.8922 52.8196 24.2797 49.3121ZM22.2617 55.8785C18.9145 60.2508 14.8929 64.0465 10.2965 66.2727L11.5585 68.8672C16.8965 66.2727 21.3168 61.9645 24.9363 57.1438C24.0715 56.7113 23.1746 56.2789 22.2617 55.8785ZM25.5129 57.4321C21.7332 64.1746 18.0977 68.9793 14.2459 76.0262L16.7844 77.4035C20.5321 70.5328 24.1516 65.7121 28.0754 58.7774C27.2426 58.3289 26.3778 57.8805 25.5129 57.4321ZM29.709 59.7063C25.7692 65.7442 22.9504 70.677 20.1637 77.0512L22.7903 78.2043C25.5289 71.9582 28.2676 67.1856 32.1754 61.1637C31.3586 60.6672 30.5418 60.1707 29.709 59.7063ZM33.3926 61.9004C30.9262 66.0645 30.6539 71.0293 30.2215 74.809L33.0723 75.1453C33.5367 71.2696 33.8891 66.7852 35.843 63.4379L33.3926 61.9004Z" fill="#097400"/>
</svg>
