<svg width="90" height="123" viewBox="0 0 90 123" fill="none" xmlns="http://www.w3.org/2000/svg">
<g clip-path="url(#clip0_33_2)">
<path d="M0 58H85V88H0V58Z" fill="#FF6AA9"/>
<path d="M79.9 36.48C79.94 36.44 79.98 36.4 80.03 36.36L80.11 36.28C78.94 34.94 77.69 33.78 76.47 32.66C72.57 29.06 69.05 25.81 69.05 19.02V17.62H20.44V20.75C20.44 20.8 20.44 20.85 20.43 20.91C20.47 26.07 17.75 28.53 14.39 31.56C12.5 33.27 10.37 35.19 8.54001 38.11L9.61001 38.16L79.9 36.48ZM7.97001 42.34C7.32001 42.44 6.74001 42.61 6.27001 42.86C4.90001 46.68 4.04001 51.74 4.17001 58.7V58.73H4.18001V92.84C4.39001 94.33 4.65001 95.76 4.95001 97.12C5.27001 98.54 5.64001 99.88 6.05001 101.13C7.94001 106.81 10.87 111.1 14.84 114C18.8 116.9 23.84 118.46 29.94 118.72H60C66.64 117.96 72.09 116.11 76.18 113.01C80.22 109.94 82.97 105.59 84.27 99.77C84.58 98.37 84.81 96.88 84.96 95.31C85.11 93.72 85.17 92.04 85.14 90.28V90.25H85.13V57.27C85.13 57.14 85.14 57.02 85.16 56.9C85.35 54.73 85.4 52.61 85.3 50.55C85.19 48.46 84.92 46.46 84.47 44.56C84.02 42.69 83.36 41.1 82.57 39.7L7.97001 42.34ZM17.35 0H72.16C74.58 0 76.78 0.99 78.38 2.58C79.97 4.17 80.96 6.37 80.96 8.8C80.96 11.22 79.97 13.42 78.38 15.02C77.02 16.38 75.23 17.29 73.24 17.54V19.03C73.24 24.01 76.12 26.67 79.31 29.61C82.89 32.92 86.81 36.53 88.51 43.61C89.03 45.78 89.34 48.03 89.46 50.34C89.57 52.57 89.51 54.89 89.3 57.27V90.23H89.29C89.32 92.13 89.26 93.95 89.1 95.67C88.94 97.42 88.68 99.08 88.33 100.65C86.8 107.48 83.52 112.63 78.69 116.3C73.97 119.89 67.83 122 60.46 122.84C60.34 122.86 60.22 122.87 60.09 122.87H29.94V122.86H29.86C22.87 122.58 17.04 120.75 12.38 117.34C7.71001 113.92 4.28001 108.96 2.11001 102.42C1.64001 101.01 1.23001 99.54 0.890015 98.02C0.560015 96.55 0.280015 95 0.0500145 93.39C0.0200145 93.25 1.45338e-05 93.1 1.45338e-05 92.95V58.74H0.0100145C-0.349985 39.3 6.44001 33.17 11.61 28.5C14.19 26.17 16.28 24.28 16.28 20.97C16.27 20.9 16.27 20.84 16.27 20.77V17.54C14.27 17.3 12.48 16.38 11.12 15.02C9.53001 13.43 8.54001 11.23 8.54001 8.8C8.54001 6.38 9.53001 4.18 11.12 2.58C12.72 0.99 14.92 0 17.35 0ZM24.9 69.03H20.33V67.63C20.33 66.98 20.27 66.56 20.15 66.38C20.03 66.2 19.84 66.11 19.57 66.11C19.28 66.11 19.05 66.23 18.9 66.47C18.75 66.71 18.67 67.07 18.67 67.56C18.67 68.19 18.76 68.66 18.93 68.98C19.1 69.3 19.56 69.68 20.32 70.14C22.5 71.44 23.88 72.52 24.44 73.35C25.01 74.18 25.29 75.53 25.29 77.38C25.29 78.73 25.13 79.72 24.82 80.36C24.51 81 23.9 81.53 22.99 81.96C22.09 82.39 21.04 82.61 19.84 82.61C18.52 82.61 17.4 82.36 16.47 81.86C15.54 81.36 14.94 80.73 14.64 79.96C14.35 79.19 14.21 78.09 14.21 76.67V75.43H18.78V77.73C18.78 78.44 18.84 78.89 18.97 79.1C19.1 79.3 19.33 79.4 19.65 79.4C19.98 79.4 20.22 79.27 20.38 79.01C20.54 78.75 20.62 78.37 20.62 77.87C20.62 76.76 20.47 76.03 20.17 75.69C19.85 75.35 19.09 74.77 17.87 73.97C16.65 73.16 15.84 72.57 15.45 72.2C15.06 71.83 14.72 71.33 14.46 70.68C14.2 70.03 14.07 69.21 14.07 68.2C14.07 66.75 14.25 65.69 14.62 65.02C14.99 64.35 15.59 63.83 16.41 63.45C17.23 63.07 18.23 62.88 19.4 62.88C20.68 62.88 21.76 63.09 22.66 63.5C23.56 63.91 24.15 64.43 24.44 65.06C24.73 65.69 24.88 66.75 24.88 68.25V69.03H24.9ZM37.83 63.29V75.94C37.83 77.38 37.78 78.38 37.69 78.96C37.59 79.54 37.32 80.14 36.86 80.75C36.4 81.36 35.8 81.83 35.05 82.14C34.3 82.45 33.41 82.61 32.39 82.61C31.26 82.61 30.26 82.42 29.4 82.05C28.53 81.67 27.89 81.19 27.46 80.59C27.03 79.99 26.78 79.35 26.7 78.69C26.62 78.02 26.58 76.62 26.58 74.49V63.29H31.51V77.49C31.51 78.32 31.55 78.85 31.64 79.07C31.73 79.3 31.91 79.42 32.17 79.42C32.47 79.42 32.67 79.29 32.76 79.04C32.85 78.78 32.89 78.19 32.89 77.25V63.29H37.83ZM50.8 70.28H45.87V68.56C45.87 67.48 45.83 66.8 45.73 66.53C45.64 66.26 45.42 66.12 45.08 66.12C44.79 66.12 44.58 66.24 44.47 66.47C44.36 66.7 44.31 67.3 44.31 68.27V77.35C44.31 78.2 44.36 78.76 44.47 79.03C44.58 79.3 44.79 79.43 45.11 79.43C45.46 79.43 45.7 79.28 45.82 78.98C45.94 78.68 46.01 78.08 46.01 77.2V74.96H45.05V72.09H50.79V82.24H47.69L47.24 80.88C46.91 81.47 46.48 81.9 45.98 82.2C45.47 82.5 44.87 82.64 44.18 82.64C43.35 82.64 42.58 82.44 41.86 82.04C41.14 81.64 40.6 81.14 40.22 80.55C39.85 79.96 39.61 79.34 39.52 78.69C39.43 78.04 39.38 77.06 39.38 75.76V70.14C39.38 68.33 39.48 67.02 39.67 66.2C39.87 65.38 40.42 64.63 41.35 63.95C42.27 63.27 43.46 62.93 44.93 62.93C46.37 62.93 47.56 63.23 48.51 63.82C49.46 64.41 50.08 65.12 50.37 65.93C50.66 66.75 50.8 67.93 50.8 69.48V70.28ZM61 63.29L63.82 82.22H58.79L58.52 78.82H56.75L56.48 82.22H51.39L53.89 63.29H61ZM58.39 75.47C58.16 73.32 57.91 70.67 57.64 67.5C57.15 71.14 56.85 73.79 56.71 75.47H58.39ZM64.45 63.29H67.93C70.25 63.29 71.82 63.38 72.64 63.56C73.46 63.74 74.13 64.2 74.65 64.94C75.17 65.67 75.43 66.85 75.43 68.46C75.43 69.93 75.25 70.92 74.88 71.43C74.52 71.94 73.8 72.24 72.72 72.34C73.69 72.58 74.35 72.91 74.69 73.31C75.02 73.71 75.23 74.09 75.31 74.43C75.39 74.77 75.43 75.7 75.43 77.23V82.23H70.86V75.93C70.86 74.92 70.78 74.29 70.62 74.05C70.46 73.81 70.05 73.69 69.38 73.69V82.23H64.45V63.29ZM69.38 66.52V70.73C69.93 70.73 70.31 70.65 70.53 70.5C70.75 70.35 70.86 69.85 70.86 69.02V67.98C70.86 67.38 70.75 66.98 70.54 66.8C70.33 66.61 69.94 66.52 69.38 66.52ZM72.15 4.17H17.35C16.08 4.17 14.92 4.69 14.08 5.53C13.24 6.37 12.72 7.53 12.72 8.8C12.72 10.07 13.24 11.23 14.08 12.07C14.92 12.91 16.08 13.43 17.35 13.43H72.16C73.43 13.43 74.59 12.91 75.43 12.07C76.27 11.23 76.79 10.07 76.79 8.8C76.79 7.53 76.27 6.37 75.43 5.53C74.58 4.69 73.43 4.17 72.15 4.17Z" fill="#FEB700"/>
<path d="M24.9 69.03H20.33V67.63C20.33 66.98 20.27 66.56 20.15 66.38C20.03 66.2 19.84 66.11 19.57 66.11C19.27 66.11 19.05 66.23 18.9 66.47C18.75 66.71 18.67 67.07 18.67 67.56C18.67 68.19 18.76 68.66 18.93 68.98C19.1 69.29 19.56 69.68 20.32 70.14C22.5 71.44 23.88 72.52 24.44 73.35C25.01 74.18 25.29 75.53 25.29 77.38C25.29 78.73 25.13 79.72 24.82 80.36C24.5 81 23.9 81.53 22.99 81.96C22.09 82.39 21.04 82.61 19.84 82.61C18.52 82.61 17.4 82.36 16.47 81.86C15.54 81.36 14.93 80.73 14.64 79.96C14.35 79.19 14.21 78.09 14.21 76.67V75.43H18.78V77.73C18.78 78.44 18.84 78.89 18.97 79.1C19.1 79.3 19.32 79.4 19.65 79.4C19.98 79.4 20.22 79.27 20.38 79.01C20.54 78.75 20.62 78.37 20.62 77.87C20.62 76.76 20.47 76.03 20.17 75.69C19.86 75.35 19.09 74.77 17.87 73.97C16.65 73.16 15.84 72.57 15.45 72.2C15.06 71.83 14.72 71.33 14.46 70.68C14.2 70.03 14.07 69.21 14.07 68.2C14.07 66.75 14.25 65.69 14.62 65.02C14.99 64.35 15.59 63.83 16.41 63.45C17.24 63.07 18.23 62.88 19.4 62.88C20.68 62.88 21.76 63.09 22.66 63.5C23.56 63.91 24.15 64.43 24.44 65.06C24.73 65.69 24.88 66.75 24.88 68.25V69.03H24.9Z" fill="white"/>
<path d="M37.83 63.29V75.94C37.83 77.38 37.78 78.38 37.69 78.96C37.59 79.54 37.32 80.14 36.86 80.75C36.4 81.36 35.8 81.83 35.05 82.14C34.3 82.45 33.41 82.61 32.39 82.61C31.26 82.61 30.26 82.42 29.4 82.05C28.53 81.68 27.89 81.19 27.46 80.59C27.03 79.99 26.78 79.35 26.7 78.69C26.62 78.02 26.58 76.62 26.58 74.49V63.29H31.51V77.49C31.51 78.32 31.55 78.85 31.64 79.07C31.73 79.3 31.91 79.42 32.17 79.42C32.47 79.42 32.67 79.29 32.76 79.04C32.85 78.78 32.89 78.19 32.89 77.25V63.29H37.83Z" fill="white"/>
<path d="M50.8 70.28H45.87V68.56C45.87 67.48 45.83 66.8 45.73 66.53C45.64 66.25 45.42 66.12 45.08 66.12C44.78 66.12 44.58 66.24 44.47 66.47C44.36 66.7 44.31 67.3 44.31 68.27V77.35C44.31 78.2 44.36 78.76 44.47 79.02C44.58 79.29 44.79 79.42 45.11 79.42C45.46 79.42 45.7 79.27 45.82 78.97C45.94 78.67 46.01 78.07 46.01 77.19V74.95H45.05V72.08H50.79V82.22H47.69L47.24 80.86C46.9 81.45 46.48 81.88 45.98 82.18C45.47 82.48 44.87 82.62 44.18 82.62C43.35 82.62 42.58 82.42 41.86 82.02C41.14 81.62 40.6 81.12 40.22 80.53C39.84 79.94 39.61 79.32 39.52 78.67C39.43 78.02 39.38 77.04 39.38 75.74V70.12C39.38 68.31 39.48 67 39.67 66.18C39.87 65.36 40.42 64.61 41.34 63.93C42.26 63.25 43.45 62.91 44.92 62.91C46.36 62.91 47.55 63.21 48.5 63.8C49.45 64.39 50.07 65.1 50.36 65.91C50.65 66.73 50.79 67.91 50.79 69.46V70.28H50.8Z" fill="white"/>
<path d="M61 63.29L63.82 82.22H58.79L58.52 78.82H56.75L56.48 82.22H51.39L53.89 63.29H61ZM58.38 75.47C58.14 73.32 57.9 70.67 57.63 67.5C57.14 71.14 56.84 73.79 56.7 75.47H58.38Z" fill="white"/>
<path d="M64.45 63.29H67.93C70.25 63.29 71.82 63.38 72.64 63.56C73.46 63.74 74.13 64.2 74.65 64.94C75.17 65.67 75.43 66.85 75.43 68.46C75.43 69.93 75.25 70.92 74.88 71.43C74.52 71.94 73.8 72.24 72.72 72.34C73.69 72.58 74.35 72.91 74.69 73.31C75.02 73.71 75.23 74.09 75.31 74.43C75.39 74.77 75.43 75.7 75.43 77.23V82.23H70.86V75.93C70.86 74.92 70.78 74.29 70.62 74.05C70.46 73.81 70.05 73.69 69.38 73.69V82.23H64.45V63.29ZM69.38 66.52V70.73C69.93 70.73 70.31 70.65 70.53 70.5C70.75 70.35 70.86 69.85 70.86 69.02V67.98C70.86 67.38 70.75 66.98 70.54 66.8C70.33 66.61 69.94 66.52 69.38 66.52Z" fill="white"/>
</g>
<defs>
<clipPath id="clip0_33_2">
<rect width="89.5" height="122.88" fill="white"/>
</clipPath>
</defs>
</svg>
