<svg width="92" height="46" viewBox="0 0 92 46" fill="none" xmlns="http://www.w3.org/2000/svg">
<g clip-path="url(#clip0_44_4)">
<path d="M12.1514 28.8235C11.4925 27.7742 10.2572 26.3602 10.2572 25.1024C10.2713 24.7047 10.4062 24.3206 10.644 24.0005C10.8819 23.6804 11.2116 23.4393 11.5898 23.3089C11.5225 22.2744 11.485 21.2251 11.485 20.1832C11.485 19.5655 11.485 18.9478 11.5225 18.3375C11.5545 17.9496 11.6247 17.5657 11.7321 17.1914C12.2151 15.6293 13.267 14.3024 14.682 13.4703C15.1885 13.1675 15.7255 12.9181 16.2842 12.7261C17.3024 12.354 16.8083 10.6572 17.9238 10.6349C20.5218 10.5679 24.7969 12.9345 26.459 14.7281C27.5218 15.8955 28.1275 17.4035 28.166 18.9775L28.0612 23.5024C28.3073 23.5537 28.5365 23.6658 28.7275 23.8284C28.9186 23.991 29.0653 24.1988 29.1543 24.4326C29.5062 25.8615 28.0163 27.6402 27.3275 28.7789C26.6387 29.9175 24.2428 33.2442 24.2354 33.2442C24.2529 33.4393 24.3314 33.6241 24.46 33.7726C25.3484 34.8899 26.5336 35.738 27.8815 36.221C32.4635 34.2042 38.3633 33.9437 41.2158 30.0887C41.4554 29.7315 41.5677 29.5454 41.5677 29.3891C41.5677 29.2328 37.9141 24.1796 37.5846 23.6438C36.7236 22.2819 35.1139 20.4362 35.1139 18.8436C35.1326 18.3263 35.3086 17.8267 35.6187 17.4109C35.9288 16.995 36.3584 16.6824 36.8509 16.5142C36.7686 15.1671 36.7161 13.7978 36.7161 12.4433C36.7161 11.6396 36.7161 10.8358 36.7611 10.0395C36.8053 9.53625 36.8955 9.03805 37.0306 8.55107C37.6663 6.52236 39.0379 4.80092 40.8789 3.7211C41.5362 3.32007 42.2337 2.98834 42.9603 2.7313C44.278 2.23267 43.6416 2.21252e-05 45.0866 2.21252e-05C48.4707 -0.0818417 54.071 2.97689 56.2048 5.32861C57.5928 6.84367 58.3895 8.80246 58.4508 10.8507L58.3086 16.7449C58.629 16.8097 58.9276 16.9544 59.1764 17.1653C59.4252 17.3761 59.616 17.6463 59.7311 17.9505C60.1953 19.8111 58.2337 22.1256 57.3503 23.5991C56.4668 25.0727 53.3447 29.3817 53.3372 29.4114C53.3554 29.6642 53.4552 29.9043 53.6217 30.0961C56.0251 33.3781 60.6895 34.0554 64.8522 35.4322C67.4502 34.5391 69.7712 34.1 69.9284 32.5223L70.0557 31.205C65.0319 31.138 60.9141 30.8924 60.7868 30.5575C65.5859 27.8784 64.8896 23.2493 65.6084 19.1785C66.0951 16.4174 67.2406 13.9169 71.1787 12.4805C76.0003 10.7019 82.222 13.0982 82.9033 19.4464C82.9033 23.7554 84.6777 28.8905 88.4212 30.6096C88.3464 30.8031 83.929 31.0859 78.6882 31.2124C78.7086 31.6335 78.779 32.0506 78.8978 32.4553C79.7064 34.9707 86.9163 35.0154 90.0758 39.1532C91.5283 41.0584 92.0749 40.7756 92.0749 45.494C92.0874 45.6311 92.0448 45.7675 91.9564 45.8735C91.868 45.9795 91.741 46.0464 91.6032 46.0596H0C0 35.7224 11.1481 38.9597 14.974 33.78C15.11 33.6254 15.2029 33.4381 15.2435 33.2367C15.2435 33.1697 12.4359 29.2179 12.1813 28.8235H12.1514Z" fill="#FEB700"/>
</g>
<defs>
<clipPath id="clip0_44_4">
<rect width="92" height="46" fill="white"/>
</clipPath>
</defs>
</svg>
