<svg width="434" height="336" viewBox="0 0 434 336" fill="none" xmlns="http://www.w3.org/2000/svg">
<path fill-rule="evenodd" clip-rule="evenodd" d="M157.72 211H277.15C278.09 211 278.87 211.79 278.87 212.72V216.16C278.87 217.09 278.09 217.88 277.15 217.88H157.72C156.78 217.89 156 217.12 156 216.17V212.73C156 211.78 156.78 211 157.72 211ZM222.4 138.73C253.97 141.25 278.8 163.98 278.8 196.2C278.8 198.82 278.63 201.39 278.32 203.92H156.57C156.25 201.36 156.09 198.78 156.09 196.19C156.09 163.82 181.15 141 212.92 138.69V128.92H203.24C202.26 128.92 201.46 128.12 201.46 127.14V120.78C201.46 119.8 202.26 119 203.24 119H231.94C232.92 119 233.72 119.8 233.72 120.78V127.15C233.72 128.13 232.92 128.93 231.94 128.93H222.4V138.73Z" fill="#857676"/>
</svg>
