<svg width="114" height="113" viewBox="0 0 114 113" fill="none" xmlns="http://www.w3.org/2000/svg">
<g clip-path="url(#clip0_1_2)">
<rect width="114" height="113" fill="white"/>
<g clip-path="url(#clip1_1_2)">
<path fill-rule="evenodd" clip-rule="evenodd" d="M56.5842 1.89675C58.4229 10.0019 60.2062 17.5056 61.7215 21.6229C66.249 21.4009 69.1872 20.1796 72.2548 19.0508C76.0339 17.6629 79.2031 15.8679 81.9658 13.7954C84.0725 12.4168 85.2552 13.0459 85.0888 16.6174C84.4513 19.939 82.7419 22.4834 80.1363 24.3894C84.5252 24.2136 88.563 24.6485 92.2219 25.7403C97.8951 27.4427 102.617 30.7088 106.229 35.7422C107.357 37.3058 108.364 39.036 109.26 40.9235C110.147 42.7925 110.923 44.8466 111.579 47.0764L111.598 47.1227C114.083 56.4491 114.37 65.1371 112.743 72.9555C111.043 81.1716 107.246 88.407 101.73 94.3748C97.9598 98.4552 93.4323 101.98 88.1102 104.812C83.0746 107.495 77.2997 109.567 70.7672 110.9C62.1373 112.658 54.339 113.13 47.289 112.491C40.1837 111.843 33.8267 110.076 28.1535 107.347C18.886 102.896 11.4665 94.8282 6.61566 85.363C1.58 75.5091 -0.711457 64.1009 0.582108 53.6734C1.10877 49.4358 2.3007 45.411 4.21333 41.7192C6.03356 38.2218 8.50981 35.0205 11.7068 32.217C16.0956 27.637 23.5798 24.852 33.9099 23.7232L26.361 20.6514C25.0212 19.7817 25.6126 19.2636 27.7747 19.0415C37.4672 18.6714 45.9677 19.1248 52.3524 21.0585C52.2508 15.6459 49.9686 10.2332 47.3167 4.82052L54.265 0.277573L56.5842 1.89675ZM14.2939 64.1934C14.0814 63.1201 14.7836 62.0746 15.8647 61.8618C16.9365 61.649 17.9806 62.3522 18.1931 63.4347C19.4035 69.5876 21.2514 74.6116 23.6168 78.7012C25.9545 82.7445 28.8095 85.8904 32.0619 88.3608C32.9397 89.0177 33.106 90.2668 32.45 91.1457C31.794 92.0247 30.5466 92.1913 29.6688 91.5343C26.0099 88.7586 22.8037 85.2242 20.1889 80.6997C17.5925 76.2216 15.5875 70.7996 14.2939 64.1934ZM76.9024 28.7751C82.8066 30.5145 87.1123 34.1137 88.6184 40.9235C88.7293 44.3562 88.2488 45.7163 86.8074 43.7455C79.2401 37.7314 72.107 34.7522 65.6576 36.3806C67.829 41.5712 72.144 45.633 76.8377 49.4913C68.3926 49.6116 60.8992 45.8366 54.071 39.3043C46.4482 43.0516 35.342 42.0246 31.1472 47.8721C28.6987 50.8791 28.2274 49.3525 28.8835 45.2537C30.6667 38.7214 33.7066 34.5023 38.1509 32.8461C30.8515 33.1237 26.0284 32.1245 23.2749 30.0704C19.5421 31.3195 16.65 32.9942 14.645 35.113C14.5988 35.1593 14.5526 35.2055 14.4972 35.2518C11.6883 37.7037 9.49846 40.5164 7.89075 43.616C6.19987 46.8636 5.15578 50.4165 4.6938 54.1638C3.50187 63.7955 5.61777 74.3433 10.3023 83.4755C14.7651 92.182 21.5286 99.584 29.946 103.618C35.185 106.135 41.0707 107.772 47.6771 108.374C54.339 108.975 61.74 108.522 69.9634 106.847C76.0708 105.598 81.4669 103.664 86.1884 101.148C91.1132 98.5199 95.2803 95.2816 98.7267 91.5621C103.735 86.1494 107.181 79.5802 108.724 72.1135C110.212 64.9151 109.944 56.8655 107.625 48.1774C107.033 46.1882 106.331 44.3562 105.546 42.6722C104.751 40.9975 103.873 39.4894 102.903 38.1385C99.8447 33.8824 95.8531 31.1252 91.0577 29.6911C86.9276 28.4697 82.1783 28.2014 76.9024 28.7751Z" fill="#857676" stroke="#857676" stroke-width="0.5" stroke-miterlimit="2.6131"/>
</g>
</g>
<defs>
<clipPath id="clip0_1_2">
<rect width="114" height="113" fill="white"/>
</clipPath>
<clipPath id="clip1_1_2">
<rect width="114" height="113" fill="white"/>
</clipPath>
</defs>
</svg>
