<svg width="123" height="99" viewBox="0 0 123 99" fill="none" xmlns="http://www.w3.org/2000/svg">
<g clip-path="url(#clip0_36_2)">
<path fill-rule="evenodd" clip-rule="evenodd" d="M1.72 92H121.15C122.09 92 122.87 92.79 122.87 93.72V97.16C122.87 98.09 122.09 98.88 121.15 98.88H1.72C0.78 98.89 0 98.12 0 97.17V93.73C0 92.78 0.78 92 1.72 92ZM66.4 19.73C97.97 22.25 122.8 44.98 122.8 77.2C122.8 79.82 122.63 82.39 122.32 84.92H0.57C0.25 82.36 0.09 79.78 0.09 77.19C0.09 44.82 25.15 22 56.92 19.69V9.92H47.24C46.26 9.92 45.46 9.12 45.46 8.14V1.78C45.46 0.8 46.26 0 47.24 0H75.94C76.92 0 77.72 0.8 77.72 1.78V8.15C77.72 9.13 76.92 9.93 75.94 9.93H66.4V19.73Z" fill="#857676"/>
</g>
<defs>
<clipPath id="clip0_36_2">
<rect width="122.88" height="98.89" fill="white"/>
</clipPath>
</defs>
</svg>
