<svg width="724" height="258" viewBox="0 0 724 258" fill="none" xmlns="http://www.w3.org/2000/svg">
<rect width="724" height="258" fill="white"/>
<path d="M41.1306 0H0V258H41.1306V0Z" fill="#CAE3D9"/>
<path d="M117.005 0H75.8744V258H117.005V0Z" fill="#CAE3D9"/>
<path d="M192.879 0H151.749V258H192.879V0Z" fill="#CAE3D9"/>
<path d="M268.754 0H227.623V258H268.754V0Z" fill="#CAE3D9"/>
<path d="M344.628 0H303.497V258H344.628V0Z" fill="#CAE3D9"/>
<path d="M420.502 0H379.372V258H420.502V0Z" fill="#CAE3D9"/>
<path d="M496.377 0H455.246V258H496.377V0Z" fill="#CAE3D9"/>
<path d="M572.251 0H531.121V258H572.251V0Z" fill="#CAE3D9"/>
<path d="M648.126 0H606.995V258H648.126V0Z" fill="#CAE3D9"/>
<path d="M724 0H682.869V258H724V0Z" fill="#CAE3D9"/>
</svg>
