<svg width="375" height="57" viewBox="0 0 375 57" fill="none" xmlns="http://www.w3.org/2000/svg">
<g clip-path="url(#clip0_3_5)">
<rect width="375" height="57" fill="white"/>
<g clip-path="url(#clip1_3_5)">
<path fill-rule="evenodd" clip-rule="evenodd" d="M69.6881 28.4961C69.6881 36.1465 67.1888 42.6787 62.1829 48.0694C57.1699 53.4679 51.1113 56.1671 44.0072 56.1671C36.9316 56.1671 30.873 53.4756 25.8529 48.0694C20.8398 42.6787 18.319 36.1465 18.319 28.4961C18.319 20.8689 20.8327 14.3676 25.8529 8.95373C30.8874 3.55527 36.9388 0.840615 44.0072 0.840615C51.1113 0.840615 57.1699 3.54756 62.1829 8.95373C67.1816 14.3676 69.6881 20.8689 69.6881 28.4961ZM11.7233 23.3985C13.9792 21.7404 15.1107 19.5733 14.9173 14.6144V1.86632C14.8958 0.0848313 11.8952 -0.131107 11.7448 1.86632L11.6302 12.2082C11.623 14.144 8.92318 14.2057 8.93034 12.2082L9.04492 1.51157C9.00911 -0.40103 6.14453 -0.593832 6.10872 1.51157C6.10872 4.48072 5.99414 9.23907 5.99414 12.2082C6.13737 14.0823 3.63086 14.329 3.69531 12.2082L3.8099 1.58098C3.74544 0.138816 2.27018 -0.377894 1.26758 0.300769C0.200521 1.03342 0.415365 2.50643 0.372396 3.74807L0 15.9486C0.0572917 19.4961 0.923828 22.3805 3.50195 23.6067C3.89583 23.7918 4.4401 23.9383 5.07031 24.0386L4.18229 53.7918C4.13216 55.5578 5.47135 57 7.03971 57H7.39779C9.16667 57 10.6634 55.3728 10.6133 53.3907L9.83268 24.0308C10.6562 23.892 11.3366 23.6838 11.7233 23.3985ZM76.4414 52.8972L76.3984 26.1748C67.6973 20.7609 70.4687 -0.100259 79.1771 0.0154225C89.7617 0.146528 91.015 23.5219 81.9128 26.09L82.5859 53.0051C82.7148 58.0951 76.4486 58.5655 76.4414 52.8972ZM58.9603 28.473C58.9603 32.9306 57.5065 36.7326 54.5775 39.8869C51.6556 43.0257 48.125 44.6067 43.9857 44.6067C39.875 44.6067 36.3444 43.0257 33.4225 39.8869C30.5006 36.7326 29.0397 32.9306 29.0397 28.473C29.0397 24.0463 30.5006 20.2442 33.4225 17.1054C36.3516 13.9666 39.875 12.3856 43.9857 12.3856C52.3001 12.3933 58.9603 19.5116 58.9603 28.473ZM62.4622 28.473C62.4622 22.9974 60.6719 18.3162 57.0697 14.437C53.4674 10.5578 49.1061 8.62982 43.9857 8.62982C38.8796 8.62982 34.5326 10.5578 30.9518 14.437C27.3496 18.3162 25.5378 22.9974 25.5378 28.473C25.5378 33.964 27.3496 38.6452 30.9518 42.5398C34.5326 46.4267 38.8796 48.3779 43.9857 48.3779C49.099 48.3779 53.4603 46.4267 57.0697 42.5398C60.6647 38.6375 62.4622 33.9563 62.4622 28.473Z" fill="#FEB700"/>
</g>
<path d="M99.256 27.24C100.344 26.536 101.507 25.992 102.744 25.608C104.003 25.2027 105.229 25 106.424 25C106.573 25 106.733 25.0107 106.904 25.032C107.096 25.032 107.363 25.0427 107.704 25.064L105.624 34.856C106.52 33.6187 107.949 31.688 109.912 29.064C111.896 26.44 112.888 25.1387 112.888 25.16H116.248L107.352 35.4C107.437 35.4 107.512 35.4 107.576 35.4C107.661 35.4 107.789 35.3893 107.96 35.368H108.472C109.816 35.368 110.808 35.6453 111.448 36.2C112.109 36.7547 112.44 37.6187 112.44 38.792C112.44 39.2827 112.387 39.848 112.28 40.488C112.173 41.1067 111.939 42.056 111.576 43.336C111.277 44.424 111.085 45.2027 111 45.672C110.915 46.1413 110.872 46.5467 110.872 46.888C110.872 47.3787 110.979 47.816 111.192 48.2C111.427 48.584 111.736 48.8507 112.12 49C111.501 49.1707 110.915 49.2987 110.36 49.384C109.827 49.4907 109.357 49.544 108.952 49.544C108.12 49.544 107.491 49.3627 107.064 49C106.659 48.6587 106.456 48.1253 106.456 47.4C106.456 47.0373 106.509 46.6 106.616 46.088C106.723 45.5547 106.936 44.68 107.256 43.464C107.619 42.1413 107.853 41.1813 107.96 40.584C108.088 39.9653 108.152 39.432 108.152 38.984C108.152 38.2587 107.992 37.7147 107.672 37.352C107.352 36.9893 106.872 36.808 106.232 36.808C106.125 36.808 105.997 36.8187 105.848 36.84C105.72 36.8613 105.496 36.8933 105.176 36.936L102.616 49H98.008L102.648 27.24C101.197 27.8373 100.088 28.744 99.32 29.96C98.552 31.1547 98.168 32.584 98.168 34.248C98.168 34.6533 98.1893 35.0053 98.232 35.304C98.296 35.6027 98.392 35.8907 98.52 36.168C98.5627 36.2533 98.584 36.3173 98.584 36.36C98.6053 36.3813 98.616 36.4027 98.616 36.424C97.4213 36.424 96.5467 36.1787 95.992 35.688C95.4587 35.176 95.192 34.3867 95.192 33.32C95.192 32.2533 95.544 31.1867 96.248 30.12C96.9733 29.0533 97.976 28.0933 99.256 27.24ZM125.963 35.784C125.963 37.5547 125.237 39.1013 123.787 40.424C122.336 41.7253 120.608 42.4293 118.603 42.536C118.581 42.8987 118.56 43.176 118.539 43.368C118.539 43.5387 118.539 43.688 118.539 43.816C118.539 44.7973 118.699 45.4907 119.019 45.896C119.36 46.3013 119.968 46.504 120.843 46.504C121.845 46.504 122.763 46.28 123.595 45.832C124.448 45.3627 125.419 44.5093 126.507 43.272H127.595C126.357 45.2773 125.013 46.7707 123.563 47.752C122.112 48.712 120.523 49.192 118.795 49.192C117.152 49.192 115.904 48.7653 115.051 47.912C114.219 47.0587 113.803 45.7893 113.803 44.104C113.803 42.888 113.995 41.5973 114.379 40.232C114.763 38.8667 115.275 37.6507 115.915 36.584C116.704 35.304 117.643 34.344 118.731 33.704C119.84 33.0427 121.077 32.712 122.443 32.712C123.616 32.712 124.491 32.968 125.067 33.48C125.664 33.9707 125.963 34.7387 125.963 35.784ZM122.699 34.408C121.973 34.408 121.237 35.0587 120.491 36.36C119.765 37.64 119.221 39.1867 118.859 41C120.096 40.9147 121.173 40.3493 122.091 39.304C123.029 38.2373 123.499 37.0427 123.499 35.72C123.499 35.272 123.435 34.9413 123.307 34.728C123.179 34.5147 122.976 34.408 122.699 34.408ZM138.244 35.784C138.244 37.5547 137.519 39.1013 136.068 40.424C134.617 41.7253 132.889 42.4293 130.884 42.536C130.863 42.8987 130.841 43.176 130.82 43.368C130.82 43.5387 130.82 43.688 130.82 43.816C130.82 44.7973 130.98 45.4907 131.3 45.896C131.641 46.3013 132.249 46.504 133.124 46.504C134.127 46.504 135.044 46.28 135.876 45.832C136.729 45.3627 137.7 44.5093 138.788 43.272H139.876C138.639 45.2773 137.295 46.7707 135.844 47.752C134.393 48.712 132.804 49.192 131.076 49.192C129.433 49.192 128.185 48.7653 127.332 47.912C126.5 47.0587 126.084 45.7893 126.084 44.104C126.084 42.888 126.276 41.5973 126.66 40.232C127.044 38.8667 127.556 37.6507 128.196 36.584C128.985 35.304 129.924 34.344 131.012 33.704C132.121 33.0427 133.359 32.712 134.724 32.712C135.897 32.712 136.772 32.968 137.348 33.48C137.945 33.9707 138.244 34.7387 138.244 35.784ZM134.98 34.408C134.255 34.408 133.519 35.0587 132.772 36.36C132.047 37.64 131.503 39.1867 131.14 41C132.377 40.9147 133.455 40.3493 134.372 39.304C135.311 38.2373 135.78 37.0427 135.78 35.72C135.78 35.272 135.716 34.9413 135.588 34.728C135.46 34.5147 135.257 34.408 134.98 34.408ZM142.877 45.672C142.963 45.9067 143.112 46.088 143.325 46.216C143.539 46.344 143.795 46.408 144.093 46.408C145.437 46.408 146.515 45.544 147.325 43.816C148.157 42.088 148.573 40.0827 148.573 37.8C148.573 36.9253 148.445 36.264 148.189 35.816C147.933 35.368 147.528 35.144 146.973 35.144C146.589 35.144 146.195 35.2933 145.789 35.592C145.384 35.8693 145.043 36.2427 144.765 36.712L142.877 45.672ZM140.701 55.848L135.869 57L141.213 31.816H145.821L145.309 34.216C145.843 33.768 146.419 33.4267 147.037 33.192C147.656 32.9573 148.328 32.84 149.053 32.84C150.333 32.84 151.304 33.2667 151.965 34.12C152.627 34.9733 152.957 36.232 152.957 37.896C152.957 41.16 152.253 43.8587 150.845 45.992C149.459 48.1253 147.539 49.192 145.085 49.192C144.403 49.192 143.827 49.096 143.357 48.904C142.909 48.712 142.579 48.424 142.365 48.04L140.701 55.848ZM168.592 28.744C168.592 29.448 168.336 30.0453 167.824 30.536C167.333 31.0267 166.736 31.272 166.032 31.272C165.328 31.272 164.73 31.0267 164.24 30.536C163.749 30.0453 163.504 29.448 163.504 28.744C163.504 28.04 163.749 27.4427 164.24 26.952C164.73 26.44 165.328 26.184 166.032 26.184C166.736 26.184 167.333 26.44 167.824 26.952C168.336 27.4427 168.592 28.04 168.592 28.744ZM160.431 45.352C160.431 45.0747 160.453 44.7653 160.495 44.424C160.538 44.0613 160.602 43.6773 160.688 43.272L162.864 33H167.472L165.168 43.88C165.125 44.072 165.093 44.2533 165.072 44.424C165.05 44.5733 165.04 44.7333 165.04 44.904C165.04 45.3307 165.136 45.64 165.328 45.832C165.541 46.0027 165.882 46.088 166.352 46.088C166.949 46.088 167.514 45.832 168.048 45.32C168.581 44.7867 168.976 44.104 169.232 43.272H170.576C169.893 45.2133 168.976 46.6853 167.824 47.688C166.672 48.6907 165.349 49.192 163.856 49.192C162.789 49.192 161.946 48.8613 161.328 48.2C160.73 47.5173 160.431 46.568 160.431 45.352ZM170.339 33H171.395L172.355 28.584L177.091 27.944L176.003 33H177.923L177.667 34.28H175.747L173.699 43.88C173.656 44.072 173.624 44.2533 173.603 44.424C173.581 44.5733 173.571 44.7333 173.571 44.904C173.571 45.3307 173.667 45.64 173.859 45.832C174.072 46.0027 174.413 46.088 174.883 46.088C175.48 46.088 176.045 45.832 176.579 45.32C177.112 44.7867 177.507 44.104 177.763 43.272H179.107C178.424 45.2133 177.507 46.6853 176.355 47.688C175.203 48.6907 173.88 49.192 172.387 49.192C171.32 49.192 170.477 48.8613 169.859 48.2C169.261 47.5173 168.963 46.568 168.963 45.352C168.963 45.0747 168.984 44.7653 169.027 44.424C169.069 44.0613 169.133 43.6773 169.219 43.272L171.139 34.28H170.083L170.339 33ZM189.552 30.728C189.552 29.0853 190.256 27.72 191.664 26.632C193.093 25.544 194.853 25 196.944 25C198.565 25 199.824 25.3307 200.72 25.992C201.637 26.6533 202.096 27.6027 202.096 28.84C202.096 29.8 201.85 30.5787 201.36 31.176C200.89 31.7733 200.261 32.072 199.472 32.072C199.173 32.072 198.896 32.0187 198.64 31.912C198.405 31.8053 198.192 31.6347 198 31.4C198.426 31.144 198.768 30.76 199.024 30.248C199.301 29.736 199.44 29.2027 199.44 28.648C199.44 27.9653 199.237 27.4427 198.832 27.08C198.426 26.696 197.84 26.504 197.072 26.504C196.154 26.504 195.429 26.76 194.896 27.272C194.384 27.784 194.128 28.4987 194.128 29.416C194.128 30.1627 194.32 30.8773 194.704 31.56C195.088 32.2213 195.92 33.1173 197.2 34.248C198.885 35.72 199.994 37 200.528 38.088C201.061 39.1547 201.328 40.3493 201.328 41.672C201.328 44.104 200.485 46.0453 198.8 47.496C197.114 48.9467 194.96 49.672 192.336 49.672C190.245 49.672 188.592 49.192 187.376 48.232C186.16 47.272 185.552 45.9173 185.552 44.168C185.552 42.632 186.01 41.3733 186.928 40.392C187.845 39.4107 188.954 38.92 190.256 38.92C191.066 38.92 191.728 39.112 192.24 39.496C192.752 39.8587 193.029 40.3707 193.072 41.032C191.962 41.032 191.056 41.2987 190.352 41.832C189.669 42.3653 189.328 43.1013 189.328 44.04C189.328 44.936 189.605 45.672 190.16 46.248C190.714 46.824 191.461 47.112 192.4 47.112C193.509 47.112 194.405 46.728 195.088 45.96C195.77 45.192 196.112 44.1573 196.112 42.856C196.112 41.8533 195.888 40.8933 195.44 39.976C194.992 39.0587 194.064 37.832 192.656 36.296C191.376 34.9307 190.533 33.864 190.128 33.096C189.744 32.3067 189.552 31.5173 189.552 30.728ZM210.842 28.744C210.842 29.448 210.586 30.0453 210.074 30.536C209.583 31.0267 208.986 31.272 208.282 31.272C207.578 31.272 206.98 31.0267 206.49 30.536C205.999 30.0453 205.754 29.448 205.754 28.744C205.754 28.04 205.999 27.4427 206.49 26.952C206.98 26.44 207.578 26.184 208.282 26.184C208.986 26.184 209.583 26.44 210.074 26.952C210.586 27.4427 210.842 28.04 210.842 28.744ZM202.681 45.352C202.681 45.0747 202.703 44.7653 202.745 44.424C202.788 44.0613 202.852 43.6773 202.938 43.272L205.114 33H209.722L207.418 43.88C207.375 44.072 207.343 44.2533 207.322 44.424C207.3 44.5733 207.29 44.7333 207.29 44.904C207.29 45.3307 207.386 45.64 207.578 45.832C207.791 46.0027 208.132 46.088 208.602 46.088C209.199 46.088 209.764 45.832 210.298 45.32C210.831 44.7867 211.226 44.104 211.482 43.272H212.826C212.143 45.2133 211.226 46.6853 210.074 47.688C208.922 48.6907 207.599 49.192 206.106 49.192C205.039 49.192 204.196 48.8613 203.578 48.2C202.98 47.5173 202.681 46.568 202.681 45.352ZM227.149 45.576C227.149 45.192 227.191 44.712 227.277 44.136C227.383 43.56 227.586 42.6427 227.885 41.384C228.183 40.168 228.375 39.2933 228.461 38.76C228.546 38.2267 228.589 37.7787 228.589 37.416C228.589 36.8827 228.493 36.4773 228.301 36.2C228.109 35.9227 227.821 35.784 227.437 35.784C226.925 35.784 226.445 36.0507 225.997 36.584C225.57 37.096 225.218 37.8107 224.941 38.728L222.765 49H218.157L220.493 37.96C220.535 37.832 220.557 37.704 220.557 37.576C220.578 37.448 220.589 37.3093 220.589 37.16C220.589 36.7333 220.503 36.392 220.333 36.136C220.162 35.88 219.927 35.752 219.629 35.752C219.074 35.752 218.573 36.0187 218.125 36.552C217.677 37.064 217.314 37.7893 217.037 38.728L214.861 49H210.253L213.645 33H218.253L217.901 34.664C218.434 34.0453 219.021 33.5867 219.661 33.288C220.301 32.9893 221.015 32.84 221.805 32.84C222.743 32.84 223.479 33.0747 224.013 33.544C224.567 33.992 224.93 34.6747 225.101 35.592C225.698 34.6747 226.359 33.992 227.085 33.544C227.81 33.096 228.631 32.872 229.549 32.872C230.679 32.872 231.554 33.1813 232.173 33.8C232.791 34.4187 233.101 35.3147 233.101 36.488C233.101 36.9787 233.037 37.5653 232.909 38.248C232.802 38.9093 232.578 39.9333 232.237 41.32C231.959 42.408 231.778 43.176 231.693 43.624C231.607 44.072 231.565 44.4453 231.565 44.744C231.565 45.192 231.671 45.5333 231.885 45.768C232.098 45.9813 232.418 46.088 232.845 46.088C233.378 46.088 233.837 45.9067 234.221 45.544C234.605 45.1813 235.042 44.424 235.533 43.272H236.877C236.194 45.256 235.362 46.7387 234.381 47.72C233.421 48.7013 232.269 49.192 230.925 49.192C229.73 49.192 228.802 48.872 228.141 48.232C227.479 47.5707 227.149 46.6853 227.149 45.576ZM239.627 45.672C239.713 45.9067 239.862 46.088 240.075 46.216C240.289 46.344 240.545 46.408 240.843 46.408C242.187 46.408 243.265 45.544 244.075 43.816C244.907 42.088 245.323 40.0827 245.323 37.8C245.323 36.9253 245.195 36.264 244.939 35.816C244.683 35.368 244.278 35.144 243.723 35.144C243.339 35.144 242.945 35.2933 242.539 35.592C242.134 35.8693 241.793 36.2427 241.515 36.712L239.627 45.672ZM237.451 55.848L232.619 57L237.963 31.816H242.571L242.059 34.216C242.593 33.768 243.169 33.4267 243.787 33.192C244.406 32.9573 245.078 32.84 245.803 32.84C247.083 32.84 248.054 33.2667 248.715 34.12C249.377 34.9733 249.707 36.232 249.707 37.896C249.707 41.16 249.003 43.8587 247.595 45.992C246.209 48.1253 244.289 49.192 241.835 49.192C241.153 49.192 240.577 49.096 240.107 48.904C239.659 48.712 239.329 48.424 239.115 48.04L237.451 55.848ZM250.244 45.352C250.244 45.0747 250.265 44.7653 250.308 44.424C250.351 44.0613 250.415 43.6773 250.5 43.272L253.924 27.24L258.66 26.6L254.98 43.88C254.937 44.072 254.905 44.2533 254.884 44.424C254.863 44.5733 254.852 44.7333 254.852 44.904C254.852 45.3307 254.948 45.64 255.14 45.832C255.353 46.0027 255.695 46.088 256.164 46.088C256.761 46.088 257.327 45.832 257.86 45.32C258.393 44.7867 258.788 44.104 259.044 43.272H260.388C259.705 45.2133 258.788 46.6853 257.636 47.688C256.484 48.6907 255.161 49.192 253.668 49.192C252.601 49.192 251.759 48.8613 251.14 48.2C250.543 47.5173 250.244 46.568 250.244 45.352ZM270.275 35.784C270.275 37.5547 269.55 39.1013 268.099 40.424C266.649 41.7253 264.921 42.4293 262.915 42.536C262.894 42.8987 262.873 43.176 262.851 43.368C262.851 43.5387 262.851 43.688 262.851 43.816C262.851 44.7973 263.011 45.4907 263.331 45.896C263.673 46.3013 264.281 46.504 265.155 46.504C266.158 46.504 267.075 46.28 267.907 45.832C268.761 45.3627 269.731 44.5093 270.819 43.272H271.907C270.67 45.2773 269.326 46.7707 267.875 47.752C266.425 48.712 264.835 49.192 263.107 49.192C261.465 49.192 260.217 48.7653 259.363 47.912C258.531 47.0587 258.115 45.7893 258.115 44.104C258.115 42.888 258.307 41.5973 258.691 40.232C259.075 38.8667 259.587 37.6507 260.227 36.584C261.017 35.304 261.955 34.344 263.043 33.704C264.153 33.0427 265.39 32.712 266.755 32.712C267.929 32.712 268.803 32.968 269.379 33.48C269.977 33.9707 270.275 34.7387 270.275 35.784ZM267.011 34.408C266.286 34.408 265.55 35.0587 264.803 36.36C264.078 37.64 263.534 39.1867 263.171 41C264.409 40.9147 265.486 40.3493 266.403 39.304C267.342 38.2373 267.811 37.0427 267.811 35.72C267.811 35.272 267.747 34.9413 267.619 34.728C267.491 34.5147 267.289 34.408 267.011 34.408ZM273.688 49.576C273.688 49.448 273.645 49.3307 273.56 49.224C273.496 49.1173 273.4 49.0213 273.272 48.936C272.76 48.5947 272.376 48.232 272.12 47.848C271.885 47.464 271.768 47.048 271.768 46.6C271.768 45.896 272.013 45.2987 272.504 44.808C272.995 44.296 273.592 44.04 274.296 44.04C274.957 44.04 275.48 44.264 275.864 44.712C276.269 45.1387 276.472 45.7253 276.472 46.472C276.472 47.5173 276.077 48.6587 275.288 49.896C274.52 51.1333 273.528 52.1787 272.312 53.032C272.205 52.968 272.131 52.8827 272.088 52.776C272.045 52.6907 272.024 52.5947 272.024 52.488C272.024 52.296 272.077 52.0933 272.184 51.88C272.291 51.688 272.515 51.4107 272.856 51.048C273.197 50.6853 273.421 50.3973 273.528 50.184C273.635 49.992 273.688 49.7893 273.688 49.576ZM289.708 30.728C289.708 29.0853 290.412 27.72 291.82 26.632C293.249 25.544 295.009 25 297.1 25C298.721 25 299.98 25.3307 300.876 25.992C301.793 26.6533 302.252 27.6027 302.252 28.84C302.252 29.8 302.006 30.5787 301.516 31.176C301.046 31.7733 300.417 32.072 299.628 32.072C299.329 32.072 299.052 32.0187 298.796 31.912C298.561 31.8053 298.348 31.6347 298.156 31.4C298.582 31.144 298.924 30.76 299.18 30.248C299.457 29.736 299.596 29.2027 299.596 28.648C299.596 27.9653 299.393 27.4427 298.988 27.08C298.582 26.696 297.996 26.504 297.228 26.504C296.31 26.504 295.585 26.76 295.052 27.272C294.54 27.784 294.284 28.4987 294.284 29.416C294.284 30.1627 294.476 30.8773 294.86 31.56C295.244 32.2213 296.076 33.1173 297.356 34.248C299.041 35.72 300.15 37 300.684 38.088C301.217 39.1547 301.484 40.3493 301.484 41.672C301.484 44.104 300.641 46.0453 298.956 47.496C297.27 48.9467 295.116 49.672 292.492 49.672C290.401 49.672 288.748 49.192 287.532 48.232C286.316 47.272 285.708 45.9173 285.708 44.168C285.708 42.632 286.166 41.3733 287.084 40.392C288.001 39.4107 289.11 38.92 290.412 38.92C291.222 38.92 291.884 39.112 292.396 39.496C292.908 39.8587 293.185 40.3707 293.228 41.032C292.118 41.032 291.212 41.2987 290.508 41.832C289.825 42.3653 289.484 43.1013 289.484 44.04C289.484 44.936 289.761 45.672 290.316 46.248C290.87 46.824 291.617 47.112 292.556 47.112C293.665 47.112 294.561 46.728 295.244 45.96C295.926 45.192 296.268 44.1573 296.268 42.856C296.268 41.8533 296.044 40.8933 295.596 39.976C295.148 39.0587 294.22 37.832 292.812 36.296C291.532 34.9307 290.689 33.864 290.284 33.096C289.9 32.3067 289.708 31.5173 289.708 30.728ZM313.494 34.472V34.696L313.846 33H318.454L316.15 43.88C316.107 44.072 316.075 44.2533 316.054 44.424C316.032 44.5733 316.022 44.7333 316.022 44.904C316.022 45.3733 316.128 45.7253 316.342 45.96C316.555 46.1733 316.886 46.28 317.334 46.28C317.888 46.28 318.39 46.024 318.838 45.512C319.286 44.9787 319.648 44.232 319.926 43.272H321.27C320.587 45.2347 319.702 46.7173 318.614 47.72C317.526 48.7013 316.267 49.192 314.838 49.192C313.92 49.192 313.184 48.936 312.63 48.424C312.096 47.912 311.787 47.1867 311.702 46.248C311.04 47.2293 310.304 47.9653 309.494 48.456C308.704 48.9467 307.851 49.192 306.934 49.192C305.611 49.192 304.566 48.744 303.798 47.848C303.051 46.952 302.678 45.6827 302.678 44.04C302.678 42.8453 302.859 41.5973 303.222 40.296C303.584 38.9947 304.086 37.8107 304.726 36.744C305.515 35.4853 306.432 34.5253 307.478 33.864C308.523 33.1813 309.664 32.84 310.902 32.84C311.734 32.84 312.374 32.9893 312.822 33.288C313.27 33.5653 313.494 33.96 313.494 34.472ZM313.206 36.04C313.206 35.72 313.088 35.4427 312.854 35.208C312.619 34.952 312.299 34.824 311.894 34.824C310.72 34.824 309.675 35.8053 308.758 37.768C307.862 39.7307 307.414 41.672 307.414 43.592C307.414 44.424 307.531 45.0533 307.766 45.48C308 45.8853 308.416 46.088 309.014 46.088C309.568 46.088 310.102 45.8213 310.614 45.288C311.147 44.7547 311.499 44.0827 311.67 43.272L313.206 36.04ZM329.858 35.72C329.516 35.72 329.239 35.56 329.026 35.24C328.812 34.8987 328.706 34.5147 328.706 34.088C328.706 33.5547 328.876 33.1387 329.218 32.84C329.58 32.52 330.071 32.36 330.69 32.36C331.351 32.36 331.852 32.6053 332.194 33.096C332.535 33.5867 332.706 34.2693 332.706 35.144C332.706 36.5947 332.514 38.12 332.13 39.72C331.767 41.2987 331.266 42.7387 330.626 44.04C329.772 45.7253 328.748 47.0053 327.554 47.88C326.359 48.7547 325.036 49.192 323.586 49.192C322.327 49.192 321.356 48.872 320.674 48.232C319.991 47.5707 319.649 46.632 319.649 45.416C319.649 45.1813 319.671 44.936 319.713 44.68C319.735 44.4027 319.767 44.136 319.809 43.88L322.114 33H326.722L324.418 43.88C324.375 44.1147 324.332 44.3387 324.29 44.552C324.268 44.744 324.258 44.904 324.258 45.032C324.258 45.3733 324.343 45.64 324.514 45.832C324.706 46.0027 324.983 46.088 325.346 46.088C326.092 46.088 326.818 45.704 327.522 44.936C328.247 44.1467 328.898 43.0373 329.474 41.608C329.9 40.584 330.242 39.5067 330.498 38.376C330.754 37.2453 330.882 36.2533 330.882 35.4C330.839 35.4853 330.7 35.56 330.466 35.624C330.252 35.688 330.05 35.72 329.858 35.72ZM332.896 44.072C332.896 42.856 333.088 41.5653 333.472 40.2C333.877 38.8347 334.421 37.6187 335.104 36.552C335.893 35.2933 336.842 34.344 337.952 33.704C339.061 33.0427 340.298 32.712 341.664 32.712C343.029 32.712 344.053 33.1387 344.736 33.992C345.418 34.8453 345.76 36.1253 345.76 37.832C345.802 37.8533 345.845 37.8747 345.888 37.896C345.952 37.896 346.026 37.896 346.112 37.896C346.773 37.896 347.562 37.7147 348.48 37.352C349.397 36.9893 350.25 36.5307 351.04 35.976L351.328 36.84C350.73 37.48 349.93 38.0347 348.928 38.504C347.946 38.9733 346.858 39.304 345.664 39.496C345.408 42.376 344.576 44.7013 343.168 46.472C341.76 48.2427 340.042 49.128 338.016 49.128C336.352 49.128 335.082 48.7013 334.208 47.848C333.333 46.9947 332.896 45.736 332.896 44.072ZM341.92 34.664C340.896 34.664 339.925 35.6987 339.008 37.768C338.112 39.8373 337.664 41.8 337.664 43.656C337.664 44.6587 337.77 45.3413 337.984 45.704C338.218 46.0667 338.656 46.248 339.296 46.248C340.085 46.248 340.832 45.608 341.536 44.328C342.261 43.048 342.752 41.4693 343.008 39.592C342.709 39.528 342.485 39.3893 342.336 39.176C342.208 38.9413 342.144 38.632 342.144 38.248C342.144 37.8427 342.229 37.4907 342.4 37.192C342.57 36.8933 342.816 36.6693 343.136 36.52C343.093 35.8373 342.976 35.3573 342.784 35.08C342.613 34.8027 342.325 34.664 341.92 34.664ZM350.798 49H346.19L349.582 33H354.19L353.774 34.984C354.713 34.1947 355.449 33.672 355.982 33.416C356.537 33.1387 357.092 33 357.646 33C358.308 33 358.841 33.2347 359.246 33.704C359.652 34.152 359.854 34.7173 359.854 35.4C359.854 36.0613 359.641 36.616 359.214 37.064C358.788 37.512 358.233 37.736 357.55 37.736C357.188 37.736 356.9 37.6507 356.686 37.48C356.494 37.3093 356.356 36.9573 356.27 36.424C356.206 36.0827 356.132 35.8693 356.046 35.784C355.961 35.6773 355.844 35.624 355.694 35.624C355.332 35.624 354.99 35.6987 354.67 35.848C354.35 35.9973 353.913 36.328 353.358 36.84L350.798 49ZM364.782 46.088C365.315 46.088 365.795 45.864 366.222 45.416C366.648 44.968 367 44.3173 367.278 43.464L369.518 33H374.126L370.958 47.848C372.024 47.464 372.856 46.9307 373.454 46.248C374.072 45.544 374.584 44.552 374.99 43.272H376.333C375.843 44.8933 375.139 46.1947 374.222 47.176C373.326 48.1573 372.142 48.8507 370.67 49.256L370.19 51.56C369.806 53.352 369.134 54.7067 368.174 55.624C367.214 56.5413 365.966 57 364.43 57C363.342 57 362.467 56.7227 361.806 56.168C361.166 55.6133 360.846 54.856 360.846 53.896C360.846 52.8507 361.272 51.9227 362.126 51.112C363 50.3227 364.312 49.6613 366.062 49.128L366.446 47.4C365.912 47.9973 365.326 48.4453 364.686 48.744C364.067 49.0427 363.374 49.192 362.606 49.192C361.539 49.192 360.696 48.8613 360.078 48.2C359.48 47.5173 359.181 46.568 359.181 45.352C359.181 45.0747 359.203 44.7653 359.245 44.424C359.288 44.0613 359.352 43.6773 359.438 43.272L361.614 33H366.222L363.918 43.88C363.896 44.008 363.875 44.1467 363.854 44.296C363.832 44.424 363.822 44.552 363.822 44.68C363.822 45.128 363.896 45.48 364.046 45.736C364.216 45.9707 364.462 46.088 364.782 46.088ZM365.742 50.728C364.675 51.1333 363.886 51.5493 363.374 51.976C362.862 52.424 362.606 52.9147 362.606 53.448C362.606 53.7253 362.712 53.9707 362.926 54.184C363.139 54.3973 363.395 54.504 363.694 54.504C364.056 54.504 364.408 54.248 364.75 53.736C365.091 53.224 365.358 52.5307 365.55 51.656L365.742 50.728Z" fill="#005248"/>
</g>
<defs>
<clipPath id="clip0_3_5">
<rect width="375" height="57" fill="white"/>
</clipPath>
<clipPath id="clip1_3_5">
<rect width="88" height="57" fill="white"/>
</clipPath>
</defs>
</svg>
