<svg width="375" height="57" viewBox="0 0 375 57" fill="none" xmlns="http://www.w3.org/2000/svg">
<g clip-path="url(#clip0_3_5)">
<path d="M80.256 21.24C81.344 20.536 82.5067 19.992 83.744 19.608C85.0027 19.2027 86.2293 19 87.424 19C87.5733 19 87.7333 19.0107 87.904 19.032C88.096 19.032 88.3627 19.0427 88.704 19.064L86.624 28.856C87.52 27.6187 88.9493 25.688 90.912 23.064C92.896 20.44 93.888 19.1387 93.888 19.16H97.248L88.352 29.4C88.4373 29.4 88.512 29.4 88.576 29.4C88.6613 29.4 88.7893 29.3893 88.96 29.368H89.472C90.816 29.368 91.808 29.6453 92.448 30.2C93.1093 30.7547 93.44 31.6187 93.44 32.792C93.44 33.2827 93.3867 33.848 93.28 34.488C93.1733 35.1067 92.9387 36.056 92.576 37.336C92.2773 38.424 92.0853 39.2027 92 39.672C91.9147 40.1413 91.872 40.5467 91.872 40.888C91.872 41.3787 91.9787 41.816 92.192 42.2C92.4267 42.584 92.736 42.8507 93.12 43C92.5013 43.1707 91.9147 43.2987 91.36 43.384C90.8267 43.4907 90.3573 43.544 89.952 43.544C89.12 43.544 88.4907 43.3627 88.064 43C87.6587 42.6587 87.456 42.1253 87.456 41.4C87.456 41.0373 87.5093 40.6 87.616 40.088C87.7227 39.5547 87.936 38.68 88.256 37.464C88.6187 36.1413 88.8533 35.1813 88.96 34.584C89.088 33.9653 89.152 33.432 89.152 32.984C89.152 32.2587 88.992 31.7147 88.672 31.352C88.352 30.9893 87.872 30.808 87.232 30.808C87.1253 30.808 86.9973 30.8187 86.848 30.84C86.72 30.8613 86.496 30.8933 86.176 30.936L83.616 43H79.008L83.648 21.24C82.1973 21.8373 81.088 22.744 80.32 23.96C79.552 25.1547 79.168 26.584 79.168 28.248C79.168 28.6533 79.1893 29.0053 79.232 29.304C79.296 29.6027 79.392 29.8907 79.52 30.168C79.5627 30.2533 79.584 30.3173 79.584 30.36C79.6053 30.3813 79.616 30.4027 79.616 30.424C78.4213 30.424 77.5467 30.1787 76.992 29.688C76.4587 29.176 76.192 28.3867 76.192 27.32C76.192 26.2533 76.544 25.1867 77.248 24.12C77.9733 23.0533 78.976 22.0933 80.256 21.24ZM106.963 29.784C106.963 31.5547 106.237 33.1013 104.787 34.424C103.336 35.7253 101.608 36.4293 99.6028 36.536C99.5814 36.8987 99.5601 37.176 99.5388 37.368C99.5388 37.5387 99.5388 37.688 99.5388 37.816C99.5388 38.7973 99.6988 39.4907 100.019 39.896C100.36 40.3013 100.968 40.504 101.843 40.504C102.845 40.504 103.763 40.28 104.595 39.832C105.448 39.3627 106.419 38.5093 107.507 37.272H108.595C107.357 39.2773 106.013 40.7707 104.563 41.752C103.112 42.712 101.523 43.192 99.7948 43.192C98.1521 43.192 96.9041 42.7653 96.0508 41.912C95.2188 41.0587 94.8027 39.7893 94.8027 38.104C94.8027 36.888 94.9947 35.5973 95.3788 34.232C95.7628 32.8667 96.2748 31.6507 96.9148 30.584C97.7041 29.304 98.6428 28.344 99.7308 27.704C100.84 27.0427 102.077 26.712 103.443 26.712C104.616 26.712 105.491 26.968 106.067 27.48C106.664 27.9707 106.963 28.7387 106.963 29.784ZM103.699 28.408C102.973 28.408 102.237 29.0587 101.491 30.36C100.765 31.64 100.221 33.1867 99.8588 35C101.096 34.9147 102.173 34.3493 103.091 33.304C104.029 32.2373 104.499 31.0427 104.499 29.72C104.499 29.272 104.435 28.9413 104.307 28.728C104.179 28.5147 103.976 28.408 103.699 28.408ZM119.244 29.784C119.244 31.5547 118.519 33.1013 117.068 34.424C115.617 35.7253 113.889 36.4293 111.884 36.536C111.863 36.8987 111.841 37.176 111.82 37.368C111.82 37.5387 111.82 37.688 111.82 37.816C111.82 38.7973 111.98 39.4907 112.3 39.896C112.641 40.3013 113.249 40.504 114.124 40.504C115.127 40.504 116.044 40.28 116.876 39.832C117.729 39.3627 118.7 38.5093 119.788 37.272H120.876C119.639 39.2773 118.295 40.7707 116.844 41.752C115.393 42.712 113.804 43.192 112.076 43.192C110.433 43.192 109.185 42.7653 108.332 41.912C107.5 41.0587 107.084 39.7893 107.084 38.104C107.084 36.888 107.276 35.5973 107.66 34.232C108.044 32.8667 108.556 31.6507 109.196 30.584C109.985 29.304 110.924 28.344 112.012 27.704C113.121 27.0427 114.359 26.712 115.724 26.712C116.897 26.712 117.772 26.968 118.348 27.48C118.945 27.9707 119.244 28.7387 119.244 29.784ZM115.98 28.408C115.255 28.408 114.519 29.0587 113.772 30.36C113.047 31.64 112.503 33.1867 112.14 35C113.377 34.9147 114.455 34.3493 115.372 33.304C116.311 32.2373 116.78 31.0427 116.78 29.72C116.78 29.272 116.716 28.9413 116.588 28.728C116.46 28.5147 116.257 28.408 115.98 28.408ZM123.877 39.672C123.963 39.9067 124.112 40.088 124.325 40.216C124.539 40.344 124.795 40.408 125.093 40.408C126.437 40.408 127.515 39.544 128.325 37.816C129.157 36.088 129.573 34.0827 129.573 31.8C129.573 30.9253 129.445 30.264 129.189 29.816C128.933 29.368 128.528 29.144 127.973 29.144C127.589 29.144 127.195 29.2933 126.789 29.592C126.384 29.8693 126.043 30.2427 125.765 30.712L123.877 39.672ZM121.701 49.848L116.869 51L122.213 25.816H126.821L126.309 28.216C126.843 27.768 127.419 27.4267 128.037 27.192C128.656 26.9573 129.328 26.84 130.053 26.84C131.333 26.84 132.304 27.2667 132.965 28.12C133.627 28.9733 133.957 30.232 133.957 31.896C133.957 35.16 133.253 37.8587 131.845 39.992C130.459 42.1253 128.539 43.192 126.085 43.192C125.403 43.192 124.827 43.096 124.357 42.904C123.909 42.712 123.579 42.424 123.365 42.04L121.701 49.848ZM145.944 21.24C147.032 20.536 148.194 19.992 149.432 19.608C150.69 19.2027 151.917 19 153.112 19C153.261 19 153.421 19.0107 153.592 19.032C153.784 19.032 154.05 19.0427 154.392 19.064L149.304 43H144.696L149.336 21.272C147.885 21.8693 146.776 22.7653 146.008 23.96C145.24 25.1547 144.856 26.584 144.856 28.248C144.856 28.6533 144.877 29.0053 144.92 29.304C144.984 29.6027 145.08 29.8907 145.208 30.168C145.25 30.2533 145.272 30.3173 145.272 30.36C145.293 30.3813 145.304 30.4027 145.304 30.424C144.109 30.424 143.234 30.1787 142.68 29.688C142.146 29.176 141.88 28.3867 141.88 27.32C141.88 26.2533 142.232 25.1867 142.936 24.12C143.661 23.0533 144.664 22.0933 145.944 21.24ZM154.808 27H155.864L156.824 22.584L161.56 21.944L160.472 27H162.392L162.135 28.28H160.216L158.168 37.88C158.125 38.072 158.093 38.2533 158.072 38.424C158.05 38.5733 158.04 38.7333 158.04 38.904C158.04 39.3307 158.136 39.64 158.328 39.832C158.541 40.0027 158.882 40.088 159.352 40.088C159.949 40.088 160.514 39.832 161.048 39.32C161.581 38.7867 161.976 38.104 162.232 37.272H163.576C162.893 39.2133 161.976 40.6853 160.824 41.688C159.672 42.6907 158.349 43.192 156.856 43.192C155.789 43.192 154.946 42.8613 154.328 42.2C153.73 41.5173 153.431 40.568 153.431 39.352C153.431 39.0747 153.453 38.7653 153.495 38.424C153.538 38.0613 153.602 37.6773 153.688 37.272L155.608 28.28H154.552L154.808 27ZM174.02 24.728C174.02 23.0853 174.724 21.72 176.132 20.632C177.562 19.544 179.322 19 181.412 19C183.034 19 184.292 19.3307 185.188 19.992C186.106 20.6533 186.564 21.6027 186.564 22.84C186.564 23.8 186.319 24.5787 185.828 25.176C185.359 25.7733 184.73 26.072 183.94 26.072C183.642 26.072 183.364 26.0187 183.108 25.912C182.874 25.8053 182.66 25.6347 182.468 25.4C182.895 25.144 183.236 24.76 183.492 24.248C183.77 23.736 183.908 23.2027 183.908 22.648C183.908 21.9653 183.706 21.4427 183.3 21.08C182.895 20.696 182.308 20.504 181.54 20.504C180.623 20.504 179.898 20.76 179.364 21.272C178.852 21.784 178.596 22.4987 178.596 23.416C178.596 24.1627 178.788 24.8773 179.172 25.56C179.556 26.2213 180.388 27.1173 181.668 28.248C183.354 29.72 184.463 31 184.996 32.088C185.53 33.1547 185.796 34.3493 185.796 35.672C185.796 38.104 184.954 40.0453 183.268 41.496C181.583 42.9467 179.428 43.672 176.804 43.672C174.714 43.672 173.06 43.192 171.844 42.232C170.628 41.272 170.02 39.9173 170.02 38.168C170.02 36.632 170.479 35.3733 171.396 34.392C172.314 33.4107 173.423 32.92 174.724 32.92C175.535 32.92 176.196 33.112 176.708 33.496C177.22 33.8587 177.498 34.3707 177.54 35.032C176.431 35.032 175.524 35.2987 174.82 35.832C174.138 36.3653 173.796 37.1013 173.796 38.04C173.796 38.936 174.074 39.672 174.628 40.248C175.183 40.824 175.93 41.112 176.868 41.112C177.978 41.112 178.874 40.728 179.556 39.96C180.239 39.192 180.58 38.1573 180.58 36.856C180.58 35.8533 180.356 34.8933 179.908 33.976C179.46 33.0587 178.532 31.832 177.124 30.296C175.844 28.9307 175.002 27.864 174.596 27.096C174.212 26.3067 174.02 25.5173 174.02 24.728ZM195.31 22.744C195.31 23.448 195.054 24.0453 194.542 24.536C194.052 25.0267 193.454 25.272 192.75 25.272C192.046 25.272 191.449 25.0267 190.958 24.536C190.468 24.0453 190.222 23.448 190.222 22.744C190.222 22.04 190.468 21.4427 190.958 20.952C191.449 20.44 192.046 20.184 192.75 20.184C193.454 20.184 194.052 20.44 194.542 20.952C195.054 21.4427 195.31 22.04 195.31 22.744ZM187.15 39.352C187.15 39.0747 187.172 38.7653 187.214 38.424C187.257 38.0613 187.321 37.6773 187.406 37.272L189.582 27H194.19L191.886 37.88C191.844 38.072 191.812 38.2533 191.79 38.424C191.769 38.5733 191.758 38.7333 191.758 38.904C191.758 39.3307 191.854 39.64 192.046 39.832C192.26 40.0027 192.601 40.088 193.07 40.088C193.668 40.088 194.233 39.832 194.766 39.32C195.3 38.7867 195.694 38.104 195.95 37.272H197.294C196.612 39.2133 195.694 40.6853 194.542 41.688C193.39 42.6907 192.068 43.192 190.574 43.192C189.508 43.192 188.665 42.8613 188.046 42.2C187.449 41.5173 187.15 40.568 187.15 39.352ZM211.618 39.576C211.618 39.192 211.66 38.712 211.746 38.136C211.852 37.56 212.055 36.6427 212.354 35.384C212.652 34.168 212.844 33.2933 212.93 32.76C213.015 32.2267 213.058 31.7787 213.058 31.416C213.058 30.8827 212.962 30.4773 212.77 30.2C212.578 29.9227 212.29 29.784 211.906 29.784C211.394 29.784 210.914 30.0507 210.466 30.584C210.039 31.096 209.687 31.8107 209.41 32.728L207.234 43H202.626L204.962 31.96C205.004 31.832 205.026 31.704 205.026 31.576C205.047 31.448 205.058 31.3093 205.058 31.16C205.058 30.7333 204.972 30.392 204.802 30.136C204.631 29.88 204.396 29.752 204.098 29.752C203.543 29.752 203.042 30.0187 202.594 30.552C202.146 31.064 201.783 31.7893 201.506 32.728L199.33 43H194.721L198.114 27H202.722L202.37 28.664C202.903 28.0453 203.49 27.5867 204.13 27.288C204.77 26.9893 205.484 26.84 206.274 26.84C207.212 26.84 207.948 27.0747 208.482 27.544C209.036 27.992 209.399 28.6747 209.57 29.592C210.167 28.6747 210.828 27.992 211.554 27.544C212.279 27.096 213.1 26.872 214.017 26.872C215.148 26.872 216.023 27.1813 216.642 27.8C217.26 28.4187 217.57 29.3147 217.57 30.488C217.57 30.9787 217.506 31.5653 217.378 32.248C217.271 32.9093 217.047 33.9333 216.706 35.32C216.428 36.408 216.247 37.176 216.162 37.624C216.076 38.072 216.034 38.4453 216.034 38.744C216.034 39.192 216.14 39.5333 216.354 39.768C216.567 39.9813 216.887 40.088 217.314 40.088C217.847 40.088 218.306 39.9067 218.69 39.544C219.074 39.1813 219.511 38.424 220.002 37.272H221.346C220.663 39.256 219.831 40.7387 218.85 41.72C217.89 42.7013 216.738 43.192 215.394 43.192C214.199 43.192 213.271 42.872 212.61 42.232C211.948 41.5707 211.618 40.6853 211.618 39.576ZM224.096 39.672C224.181 39.9067 224.331 40.088 224.544 40.216C224.757 40.344 225.013 40.408 225.312 40.408C226.656 40.408 227.733 39.544 228.544 37.816C229.376 36.088 229.792 34.0827 229.792 31.8C229.792 30.9253 229.664 30.264 229.408 29.816C229.152 29.368 228.747 29.144 228.192 29.144C227.808 29.144 227.413 29.2933 227.008 29.592C226.603 29.8693 226.261 30.2427 225.984 30.712L224.096 39.672ZM221.92 49.848L217.088 51L222.432 25.816H227.04L226.528 28.216C227.061 27.768 227.637 27.4267 228.256 27.192C228.875 26.9573 229.547 26.84 230.272 26.84C231.552 26.84 232.523 27.2667 233.184 28.12C233.845 28.9733 234.176 30.232 234.176 31.896C234.176 35.16 233.472 37.8587 232.064 39.992C230.677 42.1253 228.757 43.192 226.304 43.192C225.621 43.192 225.045 43.096 224.576 42.904C224.128 42.712 223.797 42.424 223.584 42.04L221.92 49.848ZM234.713 39.352C234.713 39.0747 234.734 38.7653 234.777 38.424C234.819 38.0613 234.883 37.6773 234.969 37.272L238.393 21.24L243.129 20.6L239.449 37.88C239.406 38.072 239.374 38.2533 239.353 38.424C239.331 38.5733 239.321 38.7333 239.321 38.904C239.321 39.3307 239.417 39.64 239.609 39.832C239.822 40.0027 240.163 40.088 240.633 40.088C241.23 40.088 241.795 39.832 242.329 39.32C242.862 38.7867 243.257 38.104 243.513 37.272H244.857C244.174 39.2133 243.257 40.6853 242.105 41.688C240.953 42.6907 239.63 43.192 238.137 43.192C237.07 43.192 236.227 42.8613 235.609 42.2C235.011 41.5173 234.713 40.568 234.713 39.352ZM254.744 29.784C254.744 31.5547 254.019 33.1013 252.568 34.424C251.117 35.7253 249.389 36.4293 247.384 36.536C247.363 36.8987 247.341 37.176 247.32 37.368C247.32 37.5387 247.32 37.688 247.32 37.816C247.32 38.7973 247.48 39.4907 247.8 39.896C248.141 40.3013 248.749 40.504 249.624 40.504C250.627 40.504 251.544 40.28 252.376 39.832C253.229 39.3627 254.2 38.5093 255.288 37.272H256.376C255.139 39.2773 253.795 40.7707 252.344 41.752C250.893 42.712 249.304 43.192 247.576 43.192C245.933 43.192 244.685 42.7653 243.832 41.912C243 41.0587 242.584 39.7893 242.584 38.104C242.584 36.888 242.776 35.5973 243.16 34.232C243.544 32.8667 244.056 31.6507 244.696 30.584C245.485 29.304 246.424 28.344 247.512 27.704C248.621 27.0427 249.859 26.712 251.224 26.712C252.397 26.712 253.272 26.968 253.848 27.48C254.445 27.9707 254.744 28.7387 254.744 29.784ZM251.48 28.408C250.755 28.408 250.019 29.0587 249.272 30.36C248.547 31.64 248.003 33.1867 247.64 35C248.877 34.9147 249.955 34.3493 250.872 33.304C251.811 32.2373 252.28 31.0427 252.28 29.72C252.28 29.272 252.216 28.9413 252.088 28.728C251.96 28.5147 251.757 28.408 251.48 28.408ZM258.157 43.576C258.157 43.448 258.114 43.3307 258.029 43.224C257.965 43.1173 257.869 43.0213 257.741 42.936C257.229 42.5947 256.845 42.232 256.589 41.848C256.354 41.464 256.237 41.048 256.237 40.6C256.237 39.896 256.482 39.2987 256.973 38.808C257.463 38.296 258.061 38.04 258.765 38.04C259.426 38.04 259.949 38.264 260.333 38.712C260.738 39.1387 260.941 39.7253 260.941 40.472C260.941 41.5173 260.546 42.6587 259.757 43.896C258.989 45.1333 257.997 46.1787 256.781 47.032C256.674 46.968 256.599 46.8827 256.557 46.776C256.514 46.6907 256.493 46.5947 256.493 46.488C256.493 46.296 256.546 46.0933 256.653 45.88C256.759 45.688 256.983 45.4107 257.325 45.048C257.666 44.6853 257.89 44.3973 257.997 44.184C258.103 43.992 258.157 43.7893 258.157 43.576ZM274.177 24.728C274.177 23.0853 274.881 21.72 276.289 20.632C277.718 19.544 279.478 19 281.569 19C283.19 19 284.449 19.3307 285.345 19.992C286.262 20.6533 286.721 21.6027 286.721 22.84C286.721 23.8 286.475 24.5787 285.985 25.176C285.515 25.7733 284.886 26.072 284.097 26.072C283.798 26.072 283.521 26.0187 283.265 25.912C283.03 25.8053 282.817 25.6347 282.625 25.4C283.051 25.144 283.393 24.76 283.649 24.248C283.926 23.736 284.065 23.2027 284.065 22.648C284.065 21.9653 283.862 21.4427 283.457 21.08C283.051 20.696 282.465 20.504 281.697 20.504C280.779 20.504 280.054 20.76 279.521 21.272C279.009 21.784 278.753 22.4987 278.753 23.416C278.753 24.1627 278.945 24.8773 279.329 25.56C279.713 26.2213 280.545 27.1173 281.825 28.248C283.51 29.72 284.619 31 285.153 32.088C285.686 33.1547 285.953 34.3493 285.953 35.672C285.953 38.104 285.11 40.0453 283.425 41.496C281.739 42.9467 279.585 43.672 276.961 43.672C274.87 43.672 273.217 43.192 272.001 42.232C270.785 41.272 270.177 39.9173 270.177 38.168C270.177 36.632 270.635 35.3733 271.553 34.392C272.47 33.4107 273.579 32.92 274.881 32.92C275.691 32.92 276.353 33.112 276.865 33.496C277.377 33.8587 277.654 34.3707 277.697 35.032C276.587 35.032 275.681 35.2987 274.977 35.832C274.294 36.3653 273.953 37.1013 273.953 38.04C273.953 38.936 274.23 39.672 274.785 40.248C275.339 40.824 276.086 41.112 277.025 41.112C278.134 41.112 279.03 40.728 279.713 39.96C280.395 39.192 280.737 38.1573 280.737 36.856C280.737 35.8533 280.513 34.8933 280.065 33.976C279.617 33.0587 278.689 31.832 277.281 30.296C276.001 28.9307 275.158 27.864 274.753 27.096C274.369 26.3067 274.177 25.5173 274.177 24.728ZM297.963 28.472V28.696L298.315 27H302.923L300.619 37.88C300.576 38.072 300.544 38.2533 300.523 38.424C300.501 38.5733 300.491 38.7333 300.491 38.904C300.491 39.3733 300.597 39.7253 300.811 39.96C301.024 40.1733 301.355 40.28 301.803 40.28C302.357 40.28 302.859 40.024 303.307 39.512C303.755 38.9787 304.117 38.232 304.395 37.272H305.739C305.056 39.2347 304.171 40.7173 303.083 41.72C301.995 42.7013 300.736 43.192 299.307 43.192C298.389 43.192 297.653 42.936 297.099 42.424C296.565 41.912 296.256 41.1867 296.171 40.248C295.509 41.2293 294.773 41.9653 293.963 42.456C293.173 42.9467 292.32 43.192 291.403 43.192C290.08 43.192 289.035 42.744 288.267 41.848C287.52 40.952 287.146 39.6827 287.146 38.04C287.146 36.8453 287.328 35.5973 287.691 34.296C288.053 32.9947 288.555 31.8107 289.195 30.744C289.984 29.4853 290.901 28.5253 291.947 27.864C292.992 27.1813 294.133 26.84 295.371 26.84C296.203 26.84 296.843 26.9893 297.291 27.288C297.739 27.5653 297.963 27.96 297.963 28.472ZM297.675 30.04C297.675 29.72 297.557 29.4427 297.323 29.208C297.088 28.952 296.768 28.824 296.363 28.824C295.189 28.824 294.144 29.8053 293.227 31.768C292.331 33.7307 291.883 35.672 291.883 37.592C291.883 38.424 292 39.0533 292.235 39.48C292.469 39.8853 292.885 40.088 293.483 40.088C294.037 40.088 294.571 39.8213 295.083 39.288C295.616 38.7547 295.968 38.0827 296.139 37.272L297.675 30.04ZM314.326 29.72C313.985 29.72 313.708 29.56 313.494 29.24C313.281 28.8987 313.174 28.5147 313.174 28.088C313.174 27.5547 313.345 27.1387 313.686 26.84C314.049 26.52 314.54 26.36 315.158 26.36C315.82 26.36 316.321 26.6053 316.662 27.096C317.004 27.5867 317.174 28.2693 317.174 29.144C317.174 30.5947 316.982 32.12 316.598 33.72C316.236 35.2987 315.734 36.7387 315.094 38.04C314.241 39.7253 313.217 41.0053 312.022 41.88C310.828 42.7547 309.505 43.192 308.054 43.192C306.796 43.192 305.825 42.872 305.142 42.232C304.46 41.5707 304.118 40.632 304.118 39.416C304.118 39.1813 304.14 38.936 304.182 38.68C304.204 38.4027 304.236 38.136 304.278 37.88L306.582 27H311.19L308.886 37.88C308.844 38.1147 308.801 38.3387 308.758 38.552C308.737 38.744 308.726 38.904 308.726 39.032C308.726 39.3733 308.812 39.64 308.982 39.832C309.174 40.0027 309.452 40.088 309.814 40.088C310.561 40.088 311.286 39.704 311.99 38.936C312.716 38.1467 313.366 37.0373 313.942 35.608C314.369 34.584 314.71 33.5067 314.966 32.376C315.222 31.2453 315.35 30.2533 315.35 29.4C315.308 29.4853 315.169 29.56 314.934 29.624C314.721 29.688 314.518 29.72 314.326 29.72ZM317.364 38.072C317.364 36.856 317.556 35.5653 317.941 34.2C318.346 32.8347 318.89 31.6187 319.573 30.552C320.362 29.2933 321.311 28.344 322.421 27.704C323.53 27.0427 324.767 26.712 326.133 26.712C327.498 26.712 328.522 27.1387 329.205 27.992C329.887 28.8453 330.229 30.1253 330.229 31.832C330.271 31.8533 330.314 31.8747 330.357 31.896C330.421 31.896 330.495 31.896 330.581 31.896C331.242 31.896 332.031 31.7147 332.949 31.352C333.866 30.9893 334.719 30.5307 335.509 29.976L335.797 30.84C335.199 31.48 334.399 32.0347 333.397 32.504C332.415 32.9733 331.327 33.304 330.133 33.496C329.877 36.376 329.045 38.7013 327.637 40.472C326.229 42.2427 324.511 43.128 322.485 43.128C320.821 43.128 319.551 42.7013 318.677 41.848C317.802 40.9947 317.364 39.736 317.364 38.072ZM326.389 28.664C325.365 28.664 324.394 29.6987 323.477 31.768C322.581 33.8373 322.133 35.8 322.133 37.656C322.133 38.6587 322.239 39.3413 322.453 39.704C322.687 40.0667 323.125 40.248 323.765 40.248C324.554 40.248 325.301 39.608 326.005 38.328C326.73 37.048 327.221 35.4693 327.477 33.592C327.178 33.528 326.954 33.3893 326.805 33.176C326.677 32.9413 326.613 32.632 326.613 32.248C326.613 31.8427 326.698 31.4907 326.869 31.192C327.039 30.8933 327.285 30.6693 327.605 30.52C327.562 29.8373 327.445 29.3573 327.253 29.08C327.082 28.8027 326.794 28.664 326.389 28.664ZM335.267 43H330.659L334.051 27H338.659L338.243 28.984C339.182 28.1947 339.918 27.672 340.451 27.416C341.006 27.1387 341.56 27 342.115 27C342.776 27 343.31 27.2347 343.715 27.704C344.12 28.152 344.323 28.7173 344.323 29.4C344.323 30.0613 344.11 30.616 343.683 31.064C343.256 31.512 342.702 31.736 342.019 31.736C341.656 31.736 341.368 31.6507 341.155 31.48C340.963 31.3093 340.824 30.9573 340.739 30.424C340.675 30.0827 340.6 29.8693 340.515 29.784C340.43 29.6773 340.312 29.624 340.163 29.624C339.8 29.624 339.459 29.6987 339.139 29.848C338.819 29.9973 338.382 30.328 337.827 30.84L335.267 43ZM349.25 40.088C349.784 40.088 350.264 39.864 350.69 39.416C351.117 38.968 351.469 38.3173 351.746 37.464L353.986 27H358.594L355.426 41.848C356.493 41.464 357.325 40.9307 357.922 40.248C358.541 39.544 359.053 38.552 359.458 37.272H360.802C360.312 38.8933 359.608 40.1947 358.69 41.176C357.794 42.1573 356.61 42.8507 355.138 43.256L354.658 45.56C354.274 47.352 353.602 48.7067 352.642 49.624C351.682 50.5413 350.434 51 348.898 51C347.81 51 346.936 50.7227 346.274 50.168C345.634 49.6133 345.314 48.856 345.314 47.896C345.314 46.8507 345.741 45.9227 346.594 45.112C347.469 44.3227 348.781 43.6613 350.53 43.128L350.914 41.4C350.381 41.9973 349.794 42.4453 349.154 42.744C348.536 43.0427 347.842 43.192 347.074 43.192C346.008 43.192 345.165 42.8613 344.546 42.2C343.949 41.5173 343.65 40.568 343.65 39.352C343.65 39.0747 343.672 38.7653 343.714 38.424C343.757 38.0613 343.821 37.6773 343.906 37.272L346.082 27H350.69L348.386 37.88C348.365 38.008 348.344 38.1467 348.322 38.296C348.301 38.424 348.29 38.552 348.29 38.68C348.29 39.128 348.365 39.48 348.514 39.736C348.685 39.9707 348.93 40.088 349.25 40.088ZM350.21 44.728C349.144 45.1333 348.354 45.5493 347.842 45.976C347.33 46.424 347.074 46.9147 347.074 47.448C347.074 47.7253 347.181 47.9707 347.394 48.184C347.608 48.3973 347.864 48.504 348.162 48.504C348.525 48.504 348.877 48.248 349.218 47.736C349.56 47.224 349.826 46.5307 350.018 45.656L350.21 44.728Z" fill="#005248"/>
<g clip-path="url(#clip1_3_5)">
<path d="M10.9824 6.20918C9.91309 6.20918 9 5.29275 9 4.17049C9 3.09724 9.91309 2.18081 10.9824 2.18081H13.7266C13.7754 2.18081 13.8779 2.18081 13.9316 2.18081C15.7627 2.22982 17.3887 2.58757 18.7559 3.45499C20.2793 4.42533 21.3975 5.90044 22.0078 8.09595C22.0078 8.14496 22.0078 8.19886 22.0566 8.24787L22.5645 10.2915H23.707V2.01909C23.707 0.906629 24.6104 0 25.7188 0H36.2998C37.4082 0 38.3115 0.906629 38.3115 2.01909V6.92958C39.9814 5.25845 42.2471 4.2342 44.7471 4.2342C45.8311 4.2342 46.876 4.43023 47.8428 4.78308C49.835 2.66108 52.6621 1.33299 55.7969 1.33299C61.1484 1.33299 65.5967 5.19474 66.5342 10.2915H67.0176C68.1357 10.2915 69 11.2079 69 12.2811C69 12.487 68.9463 12.6879 68.8975 12.8937L63.7168 33.8491C63.5117 34.7655 62.7012 35.3781 61.7881 35.3781H29.2686C29.9814 38.0294 30.6895 39.4555 31.6562 40.122C32.8232 40.8865 34.8594 40.9355 38.2627 40.8865H38.3115H61.2754C62.3936 40.8865 63.2578 41.8029 63.2578 42.8762C63.2578 43.9985 62.3447 44.8659 61.2754 44.8659H38.3164C34.0977 44.9149 31.5098 44.8169 29.4248 43.4398C27.291 42.0137 26.1729 39.5633 25.0547 35.1282L18.248 9.27212C18.248 9.22311 18.248 9.22311 18.1992 9.1692C17.8965 8.04694 17.3887 7.28243 16.6758 6.87568C15.9629 6.41501 15.001 6.21408 13.8828 6.21408C13.834 6.21408 13.7803 6.21408 13.7314 6.21408H10.9824V6.20918ZM50.2012 18.4707C50.2012 17.8434 50.8213 17.3338 51.583 17.3338C52.3447 17.3338 52.9648 17.8434 52.9648 18.4707V26.1599C52.9648 26.7872 52.3447 27.2969 51.583 27.2969C50.8213 27.2969 50.2012 26.7872 50.2012 26.1599V18.4707ZM41.9248 18.4707C41.9248 17.8434 42.5449 17.3338 43.3066 17.3338C44.0684 17.3338 44.6885 17.8434 44.6885 18.4707V26.1599C44.6885 26.7872 44.0684 27.2969 43.3066 27.2969C42.5449 27.2969 41.9248 26.7872 41.9248 26.1599V18.4707ZM33.6533 18.4707C33.6533 17.8434 34.2734 17.3338 35.0352 17.3338C35.7969 17.3338 36.417 17.8434 36.417 18.4707V26.1599C36.417 26.7872 35.7969 27.2969 35.0352 27.2969C34.2734 27.2969 33.6533 26.7872 33.6533 26.1599V18.4707ZM50.7822 6.55223C51.9102 7.55687 52.8037 8.83596 53.3652 10.2915H63.0576C62.2373 7.0325 59.2979 4.61646 55.7969 4.61646C53.8682 4.61646 52.1104 5.34666 50.7822 6.55223ZM54.0244 14.2659H35.4648H23.6826L28.2041 31.3498H60.2598L64.4736 14.2659H54.0244ZM36.0068 10.2915C36.0605 10.1493 36.1191 10.0121 36.1777 9.8749V3.5285C36.1777 2.72479 35.5186 2.06319 34.7178 2.06319H27.4131C26.6123 2.06319 25.9531 2.71989 25.9531 3.5285V10.2915H36.0068ZM55.333 47.2084C58.0283 47.2084 60.2109 49.399 60.2109 52.1042C60.2109 54.8094 58.0283 57 55.333 57C52.6426 57 50.4551 54.8094 50.4551 52.1042C50.4551 49.399 52.6426 47.2084 55.333 47.2084ZM33.9463 47.2084C36.6367 47.2084 38.8242 49.399 38.8242 52.1042C38.8242 54.8094 36.6416 57 33.9463 57C31.251 57 29.0684 54.8094 29.0684 52.1042C29.0684 49.399 31.251 47.2084 33.9463 47.2084Z" fill="#FAB401"/>
</g>
</g>
<defs>
<clipPath id="clip0_3_5">
<rect width="375" height="57" fill="white"/>
</clipPath>
<clipPath id="clip1_3_5">
<rect width="60" height="57" fill="white" transform="translate(9)"/>
</clipPath>
</defs>
</svg>
