<svg width="113" height="123" viewBox="0 0 113 123" fill="none" xmlns="http://www.w3.org/2000/svg">
<g clip-path="url(#clip0_2_14)">
<path fill-rule="evenodd" clip-rule="evenodd" d="M103.3 34.19L111.53 37.71C112.053 37.9345 112.466 38.3575 112.678 38.8862C112.89 39.415 112.884 40.0061 112.66 40.53L110.66 45.09L98.53 39.88L100.53 35.32C100.754 34.7965 101.178 34.3835 101.706 34.1717C102.235 33.9598 102.826 33.9664 103.35 34.19H103.3ZM8.88 7.88H17.07V2.73C17.1122 2.03322 17.4187 1.3788 17.9269 0.900342C18.4352 0.42188 19.1069 0.155454 19.805 0.155454C20.5031 0.155454 21.1748 0.42188 21.6831 0.900342C22.1913 1.3788 22.4978 2.03322 22.54 2.73V7.88H34.54V2.73C34.54 2.00596 34.8276 1.31157 35.3396 0.799599C35.8516 0.287624 36.546 0 37.27 0C37.994 0 38.6884 0.287624 39.2004 0.799599C39.7124 1.31157 40 2.00596 40 2.73V7.88H52V2.73C52 2.00596 52.2876 1.31157 52.7996 0.799599C53.3116 0.287624 54.006 0 54.73 0C55.454 0 56.1484 0.287624 56.6604 0.799599C57.1724 1.31157 57.46 2.00596 57.46 2.73V7.88H69.46V2.73C69.46 2.00596 69.7476 1.31157 70.2596 0.799599C70.7716 0.287624 71.466 1.62721e-07 72.19 1.62721e-07C72.914 1.62721e-07 73.6084 0.287624 74.1204 0.799599C74.6324 1.31157 74.92 2.00596 74.92 2.73V7.88H84.19C86.5427 7.88791 88.7968 8.82602 90.4604 10.4896C92.124 12.1532 93.0621 14.4073 93.07 16.76V28.54C92.3519 29.4205 91.7596 30.3965 91.31 31.44L89.31 36C89.1835 36.3801 89.08 36.7675 89 37.16C88.7848 37.5319 88.5912 37.9159 88.42 38.31L87.82 39.71V16.76C87.8147 15.8121 87.4359 14.9046 86.7656 14.2344C86.0954 13.5641 85.1879 13.1853 84.24 13.18H75V18.33C75 19.054 74.7124 19.7484 74.2004 20.2604C73.6884 20.7724 72.994 21.06 72.27 21.06C71.546 21.06 70.8516 20.7724 70.3396 20.2604C69.8276 19.7484 69.54 19.054 69.54 18.33V13.18H57.54V18.33C57.54 19.054 57.2524 19.7484 56.7404 20.2604C56.2284 20.7724 55.534 21.06 54.81 21.06C54.086 21.06 53.3916 20.7724 52.8796 20.2604C52.3676 19.7484 52.08 19.054 52.08 18.33V13.18H40V18.33C40 19.054 39.7124 19.7484 39.2004 20.2604C38.6884 20.7724 37.994 21.06 37.27 21.06C36.546 21.06 35.8516 20.7724 35.3396 20.2604C34.8276 19.7484 34.54 19.054 34.54 18.33V13.18H22.54V18.33C22.4978 19.0268 22.1913 19.6812 21.6831 20.1597C21.1748 20.6381 20.5031 20.9045 19.805 20.9045C19.1069 20.9045 18.4352 20.6381 17.9269 20.1597C17.4187 19.6812 17.1122 19.0268 17.07 18.33V13.18H8.88C7.93053 13.18 7.01994 13.5572 6.34856 14.2286C5.67718 14.8999 5.3 15.8105 5.3 16.76V108.76C5.30262 109.71 5.68033 110.62 6.35085 111.292C7.02138 111.964 7.93042 112.345 8.88 112.35H59.16L59.72 117.64H8.88C6.52742 117.637 4.2718 116.702 2.60734 115.04C0.942877 113.377 0.00529117 111.123 0 108.77L0 16.77C0.00527159 14.4156 0.942216 12.1589 2.60611 10.4932C4.27001 8.8274 6.52558 7.88792 8.88 7.88ZM20.34 94.35C19.6372 94.35 18.9631 94.0708 18.4662 93.5738C17.9692 93.0769 17.69 92.4028 17.69 91.7C17.69 90.9972 17.9692 90.3231 18.4662 89.8262C18.9631 89.3292 19.6372 89.05 20.34 89.05H66.72L64.45 94.35H20.34ZM20.34 76.87C19.6372 76.87 18.9631 76.5908 18.4662 76.0938C17.9692 75.5969 17.69 74.9228 17.69 74.22C17.69 73.5172 17.9692 72.8431 18.4662 72.3462C18.9631 71.8492 19.6372 71.57 20.34 71.57H72.78C73.2269 71.572 73.6652 71.6928 74.05 71.92L71.93 76.92L20.34 76.87ZM20.34 59.39C19.6372 59.39 18.9631 59.1108 18.4662 58.6138C17.9692 58.1169 17.69 57.4428 17.69 56.74C17.69 56.0372 17.9692 55.3631 18.4662 54.8662C18.9631 54.3692 19.6372 54.09 20.34 54.09H72.78C73.4828 54.09 74.1569 54.3692 74.6538 54.8662C75.1508 55.3631 75.43 56.0372 75.43 56.74C75.43 57.4428 75.1508 58.1169 74.6538 58.6138C74.1569 59.1108 73.4828 59.39 72.78 59.39H20.34ZM20.34 41.91C19.6372 41.91 18.9631 41.6308 18.4662 41.1338C17.9692 40.6369 17.69 39.9628 17.69 39.26C17.69 38.5572 17.9692 37.8831 18.4662 37.3862C18.9631 36.8892 19.6372 36.61 20.34 36.61H72.78C73.4828 36.61 74.1569 36.8892 74.6538 37.3862C75.1508 37.8831 75.43 38.5572 75.43 39.26C75.43 39.9628 75.1508 40.6369 74.6538 41.1338C74.1569 41.6308 73.4828 41.91 72.78 41.91H20.34ZM81 114.6L74.81 119.6C69.96 123.52 70.45 124.66 69.81 118.72L68.81 109.38L97.54 42.18L109.72 47.4L81 114.6ZM70.91 110.29L78.91 113.71L74.82 117C71.63 119.58 71.95 120.32 71.54 116.43L70.88 110.29H70.91Z" fill="#79AEB1"/>
</g>
<defs>
<clipPath id="clip0_2_14">
<rect width="112.83" height="122.88" fill="white"/>
</clipPath>
</defs>
</svg>
