<svg width="88" height="88" viewBox="0 0 88 88" fill="none" xmlns="http://www.w3.org/2000/svg">
<path d="M56.5522 30.7899C56.5522 34.8317 48.8555 38.1079 39.362 38.1079C29.8659 38.1079 22.1691 34.8315 22.1691 30.7899C22.1691 26.7455 29.8659 23.4664 39.362 23.4664C48.8555 23.4663 56.5522 26.7453 56.5522 30.7899Z" fill="#FEB700"/>
<path d="M22.1691 80.6792C22.1691 84.7236 29.8659 88.0001 39.3619 88.0001C48.8553 88.0001 56.5522 84.7236 56.5522 80.6792V78.8637C56.5522 78.3051 56.2729 77.7841 55.803 77.4725C55.3384 77.1664 54.7475 77.1126 54.2319 77.3328C54.2319 77.3328 48.8555 80.6548 39.3619 80.6548C29.8659 80.6548 24.4867 77.3328 24.4867 77.3328C23.9738 77.1126 23.3829 77.1663 22.9156 77.4725C22.4482 77.7841 22.1689 78.3051 22.1689 78.8637L22.1691 80.6792Z" fill="#FEB700"/>
<path d="M22.1691 68.2425C22.1691 72.2868 29.8659 75.5605 39.3619 75.5605C48.8553 75.5605 56.5522 72.2868 56.5522 68.2425V66.4244C56.5522 65.8658 56.2729 65.3448 55.803 65.0332C55.3384 64.7271 54.7475 64.6733 54.2319 64.8935C54.2319 64.8935 48.8555 68.2155 39.3619 68.2155C29.8659 68.2155 24.4867 64.8935 24.4867 64.8935C23.9738 64.6733 23.3829 64.7269 22.9156 65.0332C22.4482 65.3448 22.1689 65.8658 22.1689 66.4244L22.1691 68.2425Z" fill="#FEB700"/>
<path d="M22.1691 55.8057C22.1691 59.8501 29.8659 63.1238 39.3619 63.1238C48.8553 63.1238 56.5522 59.8501 56.5522 55.8057V53.9849C56.5522 53.4263 56.2729 52.9054 55.803 52.5938C55.3384 52.2876 54.7475 52.2338 54.2319 52.454C54.2319 52.454 48.8555 55.7788 39.3619 55.7788C29.8659 55.7788 24.4867 52.454 24.4867 52.454C23.9738 52.2338 23.3829 52.2875 22.9156 52.5938C22.4482 52.9054 22.1689 53.4263 22.1689 53.9849L22.1691 55.8057Z" fill="#FEB700"/>
<path d="M22.1691 43.3663C22.1691 47.4107 29.8659 50.6872 39.3619 50.6872C48.8553 50.6872 56.5522 47.4107 56.5522 43.3663V41.5508C56.5522 40.9895 56.2729 40.4713 55.803 40.1597C55.3384 39.8536 54.7475 39.7998 54.2319 40.0199C54.2319 40.0199 48.8555 43.3394 39.3619 43.3394C29.8659 43.3394 24.4867 40.0199 24.4867 40.0199C23.9738 39.7998 23.3829 39.8534 22.9156 40.1597C22.4482 40.4713 22.1689 40.9895 22.1689 41.5508L22.1691 43.3663Z" fill="#FEB700"/>
<path d="M83.2949 16.0541C83.2949 20.0932 75.5982 23.3696 66.1047 23.3696C56.6086 23.3696 48.9118 20.0932 48.9118 16.0541C48.9118 12.007 56.6086 8.73328 66.1047 8.73328C75.5982 8.73345 83.2949 12.007 83.2949 16.0541Z" fill="#FEB700"/>
<path d="M83.2896 64.1202V65.9383C83.2896 69.9827 75.5929 73.2564 66.1127 73.2564C63.8837 73.2564 61.7729 73.0792 59.8232 72.7514V65.3984C61.6574 65.7101 63.7548 65.9249 66.1127 65.9249C75.5927 65.9249 80.9772 62.6001 80.9772 62.6001C81.4875 62.3691 82.0756 62.4336 82.5509 62.7291C83.0103 63.0405 83.2896 63.5669 83.2896 64.1202Z" fill="#FEB700"/>
<path d="M83.2896 51.6914V53.5123C83.2896 57.5541 75.5929 60.8278 66.1127 60.8278C63.8837 60.8278 61.7729 60.6506 59.8232 60.3228V52.9537C61.6574 53.2653 63.7548 53.4801 66.1127 53.4801C75.5927 53.4801 80.9772 50.1554 80.9772 50.1554C81.4875 49.9433 82.0756 49.9888 82.5509 50.3005C83.0103 50.6119 83.2896 51.1222 83.2896 51.6914Z" fill="#FEB700"/>
<path d="M83.2896 39.252V41.0675C83.2896 45.1119 75.5929 48.3884 66.1127 48.3884C63.8837 48.3884 61.7729 48.2056 59.8232 47.8781V40.5089C61.6574 40.8205 63.7548 41.0354 66.1127 41.0354C75.5927 41.0354 80.9772 37.7106 80.9772 37.7106C81.4875 37.4985 82.0756 37.5468 82.5509 37.861C83.0103 38.1671 83.2896 38.6934 83.2896 39.252Z" fill="#FEB700"/>
<path d="M83.2896 26.8072V28.6227C83.2896 32.6671 75.5929 35.9408 66.1128 35.9408C63.8837 35.9408 61.7729 35.7609 59.8232 35.4359V30.7844C59.8232 29.7693 59.6111 28.8374 59.2029 27.9672C61.1688 28.3433 63.4755 28.6064 66.1128 28.6064C74.199 28.6064 79.3095 26.184 80.6334 25.4803C80.8644 25.3514 80.9772 25.2817 80.9772 25.2817C81.4875 25.0534 82.0756 25.1204 82.5509 25.4133C82.763 25.561 82.9429 25.7437 83.0584 25.9692C83.2062 26.2163 83.2896 26.5118 83.2896 26.8072Z" fill="#FEB700"/>
<path d="M39.0882 7.32084C39.0882 11.3627 31.3887 14.6364 21.8953 14.6364C12.402 14.6364 4.70508 11.3625 4.70508 7.32084C4.70508 3.27645 12.4018 0 21.8953 0C31.3888 0 39.0882 3.27645 39.0882 7.32084Z" fill="#FEB700"/>
<path d="M18.8901 57.0625V64.4155C10.8335 63.8086 4.71042 60.8142 4.71042 57.2129V55.3948C4.71042 54.8389 4.98972 54.3152 5.44897 54.0011C5.92162 53.6922 6.51253 53.6439 7.02008 53.856C7.02008 53.856 11.2766 56.4743 18.8901 57.0625Z" fill="#FEB700"/>
<path d="M18.8901 44.6392V51.9707C10.8335 51.3664 4.71042 48.372 4.71042 44.7681V42.9526C4.71042 42.394 4.98972 41.8676 5.44897 41.5615C5.92162 41.2634 6.51253 41.1962 7.02008 41.4272C7.02008 41.4272 11.2766 44.0483 18.8901 44.6392Z" fill="#FEB700"/>
<path d="M18.8901 32.1945V39.5449C10.8335 38.938 4.71042 35.9408 4.71042 32.3395V30.524C4.71042 29.9654 4.98972 29.4417 5.44897 29.1329C5.92162 28.8187 6.51253 28.7704 7.02008 28.9825C7.02008 28.9825 11.2766 31.6036 18.8901 32.1945Z" fill="#FEB700"/>
<path d="M39.0801 18.0792V19.8947C39.0801 19.9968 39.0801 20.0934 39.0639 20.1902C30.9428 20.26 22.7869 22.6313 19.9562 27.1673C11.3759 26.7563 4.71042 23.66 4.71042 19.8947V18.0792C4.71042 17.5206 4.98972 16.9997 5.44897 16.6881C5.92162 16.3765 6.51253 16.3282 7.02008 16.5564C7.02008 16.5564 12.4073 19.8784 21.9034 19.8784C31.3834 19.8784 36.7706 16.5564 36.7706 16.5564C37.0499 16.4248 37.3615 16.3926 37.6702 16.4248C37.9012 16.4571 38.1294 16.5564 38.3443 16.6879C38.7363 16.951 38.9807 17.3592 39.0479 17.8159C39.0801 17.8993 39.0801 17.9959 39.0801 18.0792Z" fill="#FEB700"/>
<path d="M56.5522 30.7899C56.5522 34.8317 48.8555 38.1079 39.362 38.1079C29.8659 38.1079 22.1691 34.8315 22.1691 30.7899C22.1691 26.7455 29.8659 23.4664 39.362 23.4664C48.8555 23.4663 56.5522 26.7453 56.5522 30.7899Z" fill="#FEB700"/>
</svg>
